<!-- by TradingView --><svg width="56" height="56" viewBox="0 0 56 56" xmlns="http://www.w3.org/2000/svg"><path fill="#F0F3FA" d="M0 0h56v56H0z"/><path d="M26.33 25H23c0-1.82 1.33-5.67 2.22-6.55 1.11-1.09 2.22-2.18 4.45-3.27L34.1 13l2.22 2.18c-1.1 1.1-2.22 1.1-5.55 3.27-2.67 1.75-4.45 3.28-4.45 6.55ZM37.44 21.73c-.88-1.75-3.33-1.46-4.44-1.1.37-.36 1.56-1.3 3.33-2.18a14.26 14.26 0 0 0 3.34-2.18l3.33 1.1c-.89 1.74-4.07 3.63-5.56 4.36ZM25 29.67V33c-1.82 0-5.67-1.33-6.55-2.22-1.09-1.11-2.18-2.22-3.27-4.45L13 21.9l2.18-2.22c1.1 1.1 1.1 2.22 3.27 5.55 1.75 2.67 3.28 4.45 6.55 4.45ZM21.73 18.56c-1.75.88-1.46 3.33-1.1 4.44-.36-.37-1.3-1.56-2.18-3.33a14.26 14.26 0 0 0-2.18-3.34l1.1-3.33c1.74.89 3.63 4.07 4.36 5.56ZM29.67 31H33c0 1.82-1.33 5.67-2.22 6.55a15.31 15.31 0 0 1-4.45 3.27L21.9 43l-2.22-2.18c1.1-1.1 2.22-1.1 5.55-3.27 2.67-1.75 4.45-3.28 4.45-6.55ZM18.56 34.27c.88 1.75 3.33 1.46 4.44 1.1-.37.36-1.56 1.3-3.33 2.18a14.26 14.26 0 0 0-3.34 2.18L13 38.63c.89-1.74 4.07-3.63 5.56-4.36ZM31 25.33V22c1.82 0 5.67 1.33 6.55 2.22a15.31 15.31 0 0 1 3.27 4.45L43 33.1l-2.18 2.22c-1.1-1.1-1.1-2.22-3.27-5.55-1.75-2.67-3.28-4.45-6.55-4.45ZM34.27 36.44c1.75-.88 1.46-3.33 1.1-4.44.36.37 1.3 1.56 2.18 3.33a14.26 14.26 0 0 0 2.18 3.34L38.63 42c-1.74-.89-3.63-4.07-4.36-5.56Z" fill="#F10400"/></svg>