<?xml version="1.0" encoding="UTF-8"?>
<svg xmlns="http://www.w3.org/2000/svg" xmlns:xlink="http://www.w3.org/1999/xlink" width="230.2pt" height="201.57pt" viewBox="0 0 230.2 201.57" version="1.1">
<defs>
<clipPath id="clip1">
  <path d="M 0 0 L 230.199219 0 L 230.199219 201.570313 L 0 201.570313 Z M 0 0 "/>
</clipPath>
</defs>
<g id="surface1">
<path style=" stroke:none;fill-rule:nonzero;fill:rgb(0%,59.599304%,28.999329%);fill-opacity:1;" d="M 194.691406 70.617188 L 194.601563 96.75 C 195.285156 92.460938 195.636719 88.113281 195.664063 83.675781 C 195.695313 79.222656 195.324219 74.863281 194.691406 70.617188 "/>
<path style=" stroke:none;fill-rule:nonzero;fill:rgb(0%,59.599304%,28.999329%);fill-opacity:1;" d="M 101.859375 9.546875 L 101.273438 162.703125 C 105.441406 163.390625 109.683594 163.761719 114 163.761719 L 114.578125 9.511719 L 101.859375 9.546875 "/>
<path style=" stroke:none;fill-rule:nonzero;fill:rgb(0%,59.599304%,28.999329%);fill-opacity:1;" d="M 127.027344 9.492188 L 126.441406 162.875 C 127.128906 162.777344 127.773438 162.660156 128.4375 162.515625 L 129.03125 9.492188 L 127.027344 9.492188 "/>
<path style=" stroke:none;fill-rule:nonzero;fill:rgb(0%,59.599304%,28.999329%);fill-opacity:1;" d="M 99.878906 9.546875 L 99.300781 162.347656 C 99.976563 162.496094 100.632813 162.613281 101.273438 162.703125 L 101.859375 9.546875 L 99.878906 9.546875 "/>
<path style=" stroke:none;fill-rule:nonzero;fill:rgb(0%,59.599304%,28.999329%);fill-opacity:1;" d="M 114.578125 9.511719 L 114 163.761719 C 114.019531 163.761719 114.070313 163.761719 114.128906 163.761719 C 114.628906 163.785156 115.078125 163.761719 115.605469 163.761719 L 116.175781 9.511719 L 114.578125 9.511719 "/>
<path style=" stroke:none;fill-rule:nonzero;fill:rgb(0%,59.599304%,28.999329%);fill-opacity:1;" d="M 117.539063 9.511719 L 116.960938 163.742188 C 117.488281 163.710938 118.007813 163.679688 118.546875 163.648438 L 119.148438 9.511719 L 117.539063 9.511719 "/>
<path style=" stroke:none;fill-rule:nonzero;fill:rgb(0%,59.599304%,28.999329%);fill-opacity:1;" d="M 120.460938 9.511719 L 119.894531 163.582031 C 120.421875 163.519531 120.96875 163.496094 121.496094 163.472656 L 122.042969 9.492188 L 120.460938 9.511719 "/>
<path style=" stroke:none;fill-rule:nonzero;fill:rgb(0%,59.599304%,28.999329%);fill-opacity:1;" d="M 123.71875 9.484375 L 123.148438 163.308594 C 123.660156 163.230469 124.199219 163.183594 124.71875 163.105469 L 125.273438 9.492188 L 123.71875 9.484375 "/>
<path style=" stroke:none;fill-rule:nonzero;fill:rgb(0%,59.599304%,28.999329%);fill-opacity:1;" d="M 96.347656 9.554688 L 95.761719 161.617188 C 96.4375 161.789063 97.125 161.902344 97.792969 162.0625 L 98.34375 9.53125 L 96.347656 9.554688 "/>
<path style=" stroke:none;fill-rule:nonzero;fill:rgb(0%,59.599304%,28.999329%);fill-opacity:1;" d="M 92.800781 9.554688 L 92.222656 160.6875 C 92.898438 160.859375 93.558594 161.035156 94.253906 161.222656 L 94.8125 9.554688 L 92.800781 9.554688 "/>
<path style=" stroke:none;fill-rule:nonzero;fill:rgb(0%,59.599304%,28.999329%);fill-opacity:1;" d="M 89.269531 9.554688 L 88.695313 159.585938 C 89.378906 159.820313 90.039063 160.03125 90.726563 160.226563 L 91.277344 9.554688 L 89.269531 9.554688 "/>
<path style=" stroke:none;fill-rule:nonzero;fill:rgb(0%,59.599304%,28.999329%);fill-opacity:1;" d="M 85.742188 9.554688 L 85.203125 158.316406 C 85.863281 158.550781 86.519531 158.808594 87.175781 159.0625 L 87.746094 9.554688 L 85.742188 9.554688 "/>
<path style=" stroke:none;fill-rule:nonzero;fill:rgb(0%,59.599304%,28.999329%);fill-opacity:1;" d="M 82.214844 9.59375 L 81.667969 156.847656 C 82.324219 157.128906 82.992188 157.394531 83.648438 157.699219 L 84.207031 9.554688 L 82.214844 9.59375 "/>
<path style=" stroke:none;fill-rule:nonzero;fill:rgb(0%,59.599304%,28.999329%);fill-opacity:1;" d="M 78.683594 9.59375 L 78.136719 155.183594 C 78.804688 155.519531 79.472656 155.832031 80.121094 156.140625 L 80.6875 9.59375 L 78.683594 9.59375 "/>
<path style=" stroke:none;fill-rule:nonzero;fill:rgb(0%,59.599304%,28.999329%);fill-opacity:1;" d="M 75.214844 9.582031 C 75.195313 9.59375 75.15625 9.621094 75.15625 9.621094 L 74.640625 153.265625 C 75.277344 153.640625 75.933594 154.003906 76.613281 154.382813 L 77.148438 9.582031 L 75.214844 9.582031 "/>
<path style=" stroke:none;fill-rule:nonzero;fill:rgb(0%,59.599304%,28.999329%);fill-opacity:1;" d="M 71.617188 11.722656 L 71.109375 151.167969 C 71.757813 151.558594 72.425781 151.96875 73.074219 152.386719 L 73.621094 10.527344 C 72.992188 10.925781 72.257813 11.296875 71.617188 11.722656 "/>
<path style=" stroke:none;fill-rule:nonzero;fill:rgb(0%,59.599304%,28.999329%);fill-opacity:1;" d="M 68.089844 14.070313 L 67.5625 148.796875 C 68.230469 149.238281 68.910156 149.683594 69.585938 150.148438 L 70.074219 12.714844 C 69.414063 13.144531 68.75 13.621094 68.089844 14.070313 "/>
<path style=" stroke:none;fill-rule:nonzero;fill:rgb(0%,59.599304%,28.999329%);fill-opacity:1;" d="M 64.550781 16.703125 L 64.042969 146.105469 C 64.710938 146.65625 65.367188 147.140625 66.054688 147.664063 L 66.535156 15.179688 C 65.878906 15.679688 65.21875 16.160156 64.550781 16.703125 "/>
<path style=" stroke:none;fill-rule:nonzero;fill:rgb(0%,59.599304%,28.999329%);fill-opacity:1;" d="M 61.003906 19.664063 L 60.542969 143.117188 C 61.210938 143.71875 61.839844 144.296875 62.539063 144.867188 L 63.015625 17.957031 C 62.320313 18.523438 61.660156 19.09375 61.003906 19.664063 "/>
<path style=" stroke:none;fill-rule:nonzero;fill:rgb(0%,59.599304%,28.999329%);fill-opacity:1;" d="M 57.433594 22.972656 L 56.996094 139.808594 C 57.683594 140.460938 58.351563 141.097656 59.03125 141.742188 L 59.457031 21.058594 C 58.78125 21.695313 58.132813 22.328125 57.433594 22.972656 "/>
<path style=" stroke:none;fill-rule:nonzero;fill:rgb(0%,59.599304%,28.999329%);fill-opacity:1;" d="M 53.90625 26.734375 L 53.496094 136.019531 C 54.164063 136.753906 54.804688 137.503906 55.488281 138.214844 L 55.910156 24.558594 C 55.21875 25.273438 54.554688 26.019531 53.90625 26.734375 "/>
<path style=" stroke:none;fill-rule:nonzero;fill:rgb(0%,59.599304%,28.999329%);fill-opacity:1;" d="M 50.386719 31.023438 L 50 131.707031 C 50.625 132.566406 51.273438 133.40625 52.003906 134.21875 L 52.371094 28.519531 C 51.671875 29.34375 50.996094 30.179688 50.386719 31.023438 "/>
<path style=" stroke:none;fill-rule:nonzero;fill:rgb(0%,59.599304%,28.999329%);fill-opacity:1;" d="M 46.828125 35.988281 L 46.480469 126.730469 C 47.136719 127.726563 47.785156 128.6875 48.453125 129.636719 L 48.824219 33.09375 C 48.125 34.039063 47.46875 35 46.828125 35.988281 "/>
<path style=" stroke:none;fill-rule:nonzero;fill:rgb(0%,59.599304%,28.999329%);fill-opacity:1;" d="M 43.25 41.851563 L 42.972656 120.832031 C 43.609375 122.015625 44.257813 123.15625 44.945313 124.273438 L 45.253906 38.382813 C 44.566406 39.519531 43.917969 40.679688 43.25 41.851563 "/>
<path style=" stroke:none;fill-rule:nonzero;fill:rgb(0%,59.599304%,28.999329%);fill-opacity:1;" d="M 39.722656 49.203125 L 39.484375 113.457031 C 40.082031 114.949219 40.757813 116.394531 41.464844 117.820313 L 41.714844 44.832031 C 41.007813 46.253906 40.320313 47.726563 39.722656 49.203125 "/>
<path style=" stroke:none;fill-rule:nonzero;fill:rgb(0%,59.599304%,28.999329%);fill-opacity:1;" d="M 36.152344 59.421875 L 35.984375 103.226563 C 36.550781 105.339844 37.203125 107.464844 37.988281 109.546875 L 38.164063 53.128906 C 37.410156 55.210938 36.722656 57.28125 36.152344 59.421875 "/>
<path style=" stroke:none;fill-rule:nonzero;fill:rgb(0%,59.599304%,28.999329%);fill-opacity:1;" d="M 33.164063 81.300781 C 33.132813 86.5 33.582031 91.535156 34.480469 96.460938 L 34.578125 66.191406 C 33.652344 71.082031 33.164063 76.132813 33.164063 81.300781 "/>
<path style=" stroke:none;fill-rule:nonzero;fill:rgb(0%,59.599304%,28.999329%);fill-opacity:1;" d="M 130.386719 9.484375 L 129.839844 162.289063 C 130.507813 162.144531 131.183594 162.015625 131.84375 161.859375 L 132.410156 9.472656 L 130.386719 9.484375 "/>
<path style=" stroke:none;fill-rule:nonzero;fill:rgb(0%,59.599304%,28.999329%);fill-opacity:1;" d="M 133.816406 9.484375 L 133.25 161.566406 C 133.917969 161.367188 134.582031 161.238281 135.25 161.035156 L 135.796875 9.472656 L 133.816406 9.484375 "/>
<path style=" stroke:none;fill-rule:nonzero;fill:rgb(0%,59.599304%,28.999329%);fill-opacity:1;" d="M 137.203125 9.472656 L 136.628906 160.644531 C 137.324219 160.460938 137.984375 160.242188 138.640625 160.046875 L 139.21875 9.457031 L 137.203125 9.472656 "/>
<path style=" stroke:none;fill-rule:nonzero;fill:rgb(0%,59.599304%,28.999329%);fill-opacity:1;" d="M 140.605469 9.472656 L 140.046875 159.601563 C 140.691406 159.359375 141.363281 159.132813 142.039063 158.90625 L 142.558594 9.472656 L 140.605469 9.472656 "/>
<path style=" stroke:none;fill-rule:nonzero;fill:rgb(0%,59.599304%,28.999329%);fill-opacity:1;" d="M 143.992188 9.472656 L 143.453125 158.355469 C 144.105469 158.121094 144.769531 157.84375 145.425781 157.554688 L 146 9.4375 L 143.992188 9.472656 "/>
<path style=" stroke:none;fill-rule:nonzero;fill:rgb(0%,59.599304%,28.999329%);fill-opacity:1;" d="M 147.394531 9.4375 L 146.847656 156.941406 C 147.496094 156.65625 148.183594 156.34375 148.816406 156.042969 L 149.367188 9.457031 L 147.394531 9.4375 "/>
<path style=" stroke:none;fill-rule:nonzero;fill:rgb(0%,59.599304%,28.999329%);fill-opacity:1;" d="M 150.796875 9.449219 L 150.242188 155.378906 C 150.90625 155.019531 151.570313 154.675781 152.269531 154.335938 L 152.804688 9.4375 L 150.796875 9.449219 "/>
<path style=" stroke:none;fill-rule:nonzero;fill:rgb(0%,59.599304%,28.999329%);fill-opacity:1;" d="M 154.199219 9.886719 L 153.640625 153.542969 C 154.3125 153.199219 154.984375 152.804688 155.644531 152.40625 L 156.175781 11.039063 C 155.507813 10.664063 154.851563 10.289063 154.199219 9.886719 "/>
<path style=" stroke:none;fill-rule:nonzero;fill:rgb(0%,59.599304%,28.999329%);fill-opacity:1;" d="M 157.566406 11.925781 L 157.0625 151.558594 C 157.738281 151.136719 158.398438 150.695313 159.03125 150.242188 L 159.542969 13.230469 C 158.914063 12.785156 158.246094 12.320313 157.566406 11.925781 "/>
<path style=" stroke:none;fill-rule:nonzero;fill:rgb(0%,59.599304%,28.999329%);fill-opacity:1;" d="M 160.960938 14.183594 L 160.453125 149.296875 C 161.125 148.832031 161.796875 148.363281 162.460938 147.878906 L 162.945313 15.65625 C 162.324219 15.148438 161.640625 14.664063 160.960938 14.183594 "/>
<path style=" stroke:none;fill-rule:nonzero;fill:rgb(0%,59.599304%,28.999329%);fill-opacity:1;" d="M 164.328125 16.722656 L 163.839844 146.785156 C 164.539063 146.273438 165.164063 145.753906 165.851563 145.207031 L 166.34375 18.320313 C 165.644531 17.796875 165.007813 17.261719 164.328125 16.722656 "/>
<path style=" stroke:none;fill-rule:nonzero;fill:rgb(0%,59.599304%,28.999329%);fill-opacity:1;" d="M 167.726563 19.535156 L 167.277344 143.992188 C 167.945313 143.410156 168.601563 142.808594 169.261719 142.195313 L 169.710938 21.355469 C 169.0625 20.738281 168.425781 20.15625 167.726563 19.535156 "/>
<path style=" stroke:none;fill-rule:nonzero;fill:rgb(0%,59.599304%,28.999329%);fill-opacity:1;" d="M 171.109375 22.714844 L 170.671875 140.878906 C 171.34375 140.199219 172.003906 139.550781 172.664063 138.855469 L 173.101563 24.699219 C 172.429688 24.023438 171.773438 23.363281 171.109375 22.714844 "/>
<path style=" stroke:none;fill-rule:nonzero;fill:rgb(0%,59.599304%,28.999329%);fill-opacity:1;" d="M 174.496094 26.242188 L 174.066406 137.355469 C 174.761719 136.621094 175.421875 135.867188 176.070313 135.089844 L 176.460938 28.515625 C 175.828125 27.734375 175.171875 26.960938 174.496094 26.242188 "/>
<path style=" stroke:none;fill-rule:nonzero;fill:rgb(0%,59.599304%,28.999329%);fill-opacity:1;" d="M 177.875 30.214844 L 177.472656 133.414063 C 178.171875 132.546875 178.816406 131.675781 179.496094 130.804688 L 179.855469 32.8125 C 179.210938 31.949219 178.542969 31.078125 177.875 30.214844 "/>
<path style=" stroke:none;fill-rule:nonzero;fill:rgb(0%,59.599304%,28.999329%);fill-opacity:1;" d="M 181.253906 34.792969 L 180.894531 128.828125 C 181.582031 127.851563 182.261719 126.835938 182.917969 125.820313 L 183.246094 37.847656 C 182.589844 36.804688 181.929688 35.785156 181.253906 34.792969 "/>
<path style=" stroke:none;fill-rule:nonzero;fill:rgb(0%,59.599304%,28.999329%);fill-opacity:1;" d="M 184.601563 40.175781 L 184.316406 123.515625 C 185.019531 122.316406 185.660156 121.109375 186.292969 119.882813 L 186.578125 43.765625 C 185.957031 42.5625 185.320313 41.347656 184.601563 40.175781 "/>
<path style=" stroke:none;fill-rule:nonzero;fill:rgb(0%,59.599304%,28.999329%);fill-opacity:1;" d="M 187.980469 46.636719 L 187.722656 117.0625 C 188.421875 115.527344 189.109375 114.003906 189.742188 112.457031 L 189.957031 51.265625 C 189.359375 49.6875 188.6875 48.121094 187.980469 46.636719 "/>
<path style=" stroke:none;fill-rule:nonzero;fill:rgb(0%,59.599304%,28.999329%);fill-opacity:1;" d="M 191.359375 55.070313 L 191.171875 108.671875 C 191.925781 106.417969 192.585938 104.191406 193.171875 101.859375 L 193.304688 61.839844 C 192.765625 59.546875 192.078125 57.296875 191.359375 55.070313 "/>
<path style=" stroke:none;fill-rule:nonzero;fill:rgb(0%,59.599304%,28.999329%);fill-opacity:1;" d="M 129.71875 9.554688 L 93.417969 9.4375 L 78.707031 18.867188 L 78.644531 33.453125 L 78.644531 33.527344 C 58.113281 34.617188 41.777344 51.882813 41.695313 73.101563 C 41.636719 90.054688 51.980469 104.550781 66.644531 110.28125 L 66.632813 110.46875 L 66.625 116.964844 C 60.4375 116.960938 59.238281 119.207031 59.238281 119.207031 C 71.867188 153.285156 105.28125 159.308594 105.28125 159.308594 L 105.238281 162.984375 C 115.011719 164.757813 127.0625 162.960938 127.0625 162.960938 L 127.089844 155.183594 C 161.066406 149.375 187.039063 119.035156 187.175781 82.398438 C 187.324219 46.472656 162.636719 16.476563 129.71875 9.554688 Z M 125.507813 61.773438 C 125.507813 61.773438 113.394531 37.519531 114.488281 30.582031 C 114.488281 30.582031 126.730469 30.980469 132.441406 41.273438 C 132.441406 41.273438 134.902344 56.289063 125.507813 61.773438 "/>
<path style=" stroke:none;fill-rule:nonzero;fill:rgb(100%,100%,100%);fill-opacity:1;" d="M 82.683594 114.421875 C 82.714844 114.683594 84 120.882813 91.984375 124.96875 C 99.519531 128.828125 100.503906 129.71875 102.828125 133.019531 L 103.945313 132.210938 C 101.453125 128.6875 100.375 127.75 92.570313 123.75 C 85.257813 119.984375 84.039063 114.222656 84.039063 114.15625 L 82.683594 114.421875 "/>
<path style=" stroke:none;fill-rule:nonzero;fill:rgb(100%,100%,100%);fill-opacity:1;" d="M 80.199219 115.441406 C 80.230469 115.710938 81.605469 122.28125 89.558594 126.390625 C 97.335938 130.363281 98.480469 131.664063 100.753906 134.824219 L 101.859375 134.039063 C 99.277344 130.40625 97.792969 129.070313 90.1875 125.152344 C 82.832031 121.390625 81.527344 115.21875 81.527344 115.15625 L 80.199219 115.441406 "/>
<path style=" stroke:none;fill-rule:nonzero;fill:rgb(100%,100%,100%);fill-opacity:1;" d="M 96.347656 113.355469 L 98.023438 118.519531 L 99.277344 118.082031 L 97.644531 112.917969 L 96.347656 113.355469 "/>
<path style=" stroke:none;fill-rule:nonzero;fill:rgb(100%,100%,100%);fill-opacity:1;" d="M 77.210938 117.34375 C 77.230469 117.613281 78.535156 123.800781 86.46875 127.867188 C 94.523438 132.046875 97.277344 134.480469 99.425781 137.542969 L 99.789063 138.101563 L 111.558594 130.355469 L 111.527344 129.945313 C 111.039063 121.503906 102.539063 119.867188 102.457031 119.867188 L 102.21875 121.21875 C 102.539063 121.285156 109.484375 122.636719 110.164063 129.660156 C 109.496094 130.066406 101.023438 135.640625 100.15625 136.226563 C 97.554688 132.808594 94.046875 130.234375 87.058594 126.652344 C 79.761719 122.902344 78.535156 117.136719 78.535156 117.085938 L 77.210938 117.34375 "/>
<path style=" stroke:none;fill-rule:nonzero;fill:rgb(100%,100%,100%);fill-opacity:1;" d="M 88.523438 144.347656 L 89.269531 145.496094 L 97.367188 140.027344 L 96.617188 138.890625 L 88.523438 144.347656 "/>
<path style=" stroke:none;fill-rule:nonzero;fill:rgb(100%,100%,100%);fill-opacity:1;" d="M 94.980469 148.714844 L 95.75 149.859375 L 103.613281 144.417969 L 102.867188 143.257813 L 94.980469 148.714844 "/>
<path style=" stroke:none;fill-rule:nonzero;fill:rgb(100%,100%,100%);fill-opacity:1;" d="M 102.507813 141.324219 L 104.492188 143.136719 L 105.40625 142.113281 L 103.414063 140.316406 L 102.507813 141.324219 "/>
<path style=" stroke:none;fill-rule:nonzero;fill:rgb(100%,100%,100%);fill-opacity:1;" d="M 104.871094 138.847656 L 106.652344 140.796875 L 107.621094 139.847656 L 105.855469 137.914063 L 104.871094 138.847656 "/>
<path style=" stroke:none;fill-rule:nonzero;fill:rgb(100%,100%,100%);fill-opacity:1;" d="M 107.933594 137.328125 L 110.101563 139.128906 L 110.972656 138.066406 L 108.769531 136.257813 L 107.933594 137.328125 "/>
<path style=" stroke:none;fill-rule:nonzero;fill:rgb(100%,100%,100%);fill-opacity:1;" d="M 111.90625 133.730469 C 112.257813 133.917969 113.105469 134.566406 113.265625 135.316406 C 113.332031 135.652344 113.292969 135.988281 113.066406 136.3125 L 114.179688 137.058594 C 114.660156 136.402344 114.738281 135.683594 114.558594 134.96875 C 114.261719 133.511719 112.746094 132.613281 112.574219 132.542969 L 111.90625 133.730469 "/>
<path style=" stroke:none;fill-rule:nonzero;fill:rgb(100%,100%,100%);fill-opacity:1;" d="M 100.960938 150.441406 L 101.710938 151.597656 L 120.460938 138.804688 L 119.703125 137.65625 L 100.960938 150.441406 "/>
<path style=" stroke:none;fill-rule:nonzero;fill:rgb(100%,100%,100%);fill-opacity:1;" d="M 103.046875 152.628906 L 103.796875 153.742188 L 122.554688 140.945313 L 121.773438 139.8125 L 103.046875 152.628906 "/>
<path style=" stroke:none;fill-rule:nonzero;fill:rgb(100%,100%,100%);fill-opacity:1;" d="M 105.519531 154.214844 L 106.277344 155.378906 L 125.035156 142.582031 L 124.261719 141.429688 L 105.519531 154.214844 "/>
<path style=" stroke:none;fill-rule:nonzero;fill:rgb(100%,100%,100%);fill-opacity:1;" d="M 107.898438 156.171875 L 108.636719 157.3125 L 127.398438 144.480469 L 126.679688 143.355469 L 107.898438 156.171875 "/>
<path style=" stroke:none;fill-rule:nonzero;fill:rgb(100%,100%,100%);fill-opacity:1;" d="M 108.90625 141.871094 C 108.46875 141.941406 107.742188 142.074219 107.691406 142.648438 C 107.683594 143.214844 108.4375 143.605469 108.886719 143.605469 C 109.394531 143.597656 110.015625 143.152344 109.90625 142.582031 C 109.792969 141.96875 109.027344 141.871094 108.53125 141.792969 "/>
<path style=" stroke:none;fill-rule:nonzero;fill:rgb(100%,100%,100%);fill-opacity:1;" d="M 111 140.445313 C 110.5625 140.609375 110.5625 141.152344 110.59375 141.503906 C 111.128906 142.089844 112.324219 142.300781 112.535156 141.441406 C 112.746094 140.496094 111.578125 140.445313 111 140.445313 "/>
<path style=" stroke:none;fill-rule:nonzero;fill:rgb(100%,100%,100%);fill-opacity:1;" d="M 113.601563 138.164063 C 112.804688 138.855469 112.347656 140.148438 113.730469 140.546875 C 114.808594 140.828125 116.15625 139.527344 115.308594 138.515625 C 114.859375 138.035156 114.019531 138.15625 113.472656 138.230469 "/>
<path style=" stroke:none;fill-rule:nonzero;fill:rgb(100%,100%,100%);fill-opacity:1;" d="M 116.652344 136.628906 C 116.0625 136.753906 115.945313 137.4375 116.15625 137.933594 C 116.910156 138.625 117.410156 138.203125 117.96875 138.042969 C 118.207031 136.816406 117.738281 136.476563 116.59375 136.546875 "/>
<path style=" stroke:none;fill-rule:nonzero;fill:rgb(100%,100%,100%);fill-opacity:1;" d="M 103.085938 104.433594 L 97.546875 81.734375 L 97.523438 81.734375 C 95.089844 84.722656 91.40625 86.636719 87.289063 86.617188 C 80.042969 86.585938 74.171875 80.59375 74.21875 73.214844 C 74.25 65.800781 80.152344 59.835938 87.40625 59.867188 C 89.210938 59.867188 90.925781 60.234375 92.480469 60.933594 L 92.46875 60.867188 L 86.941406 38.164063 L 86.929688 38.191406 C 82.53125 38.203125 78.296875 39.121094 74.441406 40.710938 L 78.445313 51.75 C 78.445313 51.75 72.992188 54.804688 70.871094 57.054688 L 70.84375 57.066406 L 62.519531 48.933594 L 62.46875 48.96875 C 59.246094 52.425781 56.707031 56.496094 55.023438 61.054688 L 55.023438 61.082031 L 65.820313 65.152344 L 65.828125 65.199219 C 64.949219 67.710938 64.453125 70.363281 64.441406 73.179688 C 64.441406 73.546875 64.441406 73.953125 64.492188 74.3125 L 64.410156 74.3125 L 52.902344 74.863281 C 53.148438 79.824219 54.363281 84.523438 56.417969 88.753906 L 56.417969 88.789063 L 66.765625 83.570313 L 66.765625 83.527344 C 68.148438 86.371094 70.074219 88.882813 72.367188 90.917969 L 72.316406 90.90625 L 64.828125 99.773438 L 64.828125 99.777344 C 68.339844 102.914063 72.503906 105.265625 77.089844 106.765625 L 77.101563 106.792969 L 80.539063 95.523438 C 82.652344 96.175781 84.933594 96.539063 87.269531 96.5625 C 87.855469 96.5625 88.464844 96.5625 89.0625 96.503906 L 89.152344 96.480469 L 90.515625 108.164063 C 94.980469 107.742188 99.238281 106.460938 103.078125 104.460938 L 103.085938 104.433594 "/>
<path style=" stroke:none;fill-rule:nonzero;fill:rgb(0%,59.599304%,28.999329%);fill-opacity:1;" d="M 52.878906 74.863281 L 52.902344 74.863281 C 52.902344 74.839844 52.902344 74.820313 52.902344 74.820313 L 52.878906 74.863281 "/>
<path style=" stroke:none;fill-rule:nonzero;fill:rgb(100%,100%,100%);fill-opacity:1;" d="M 90.515625 108.199219 L 90.515625 108.164063 C 90.496094 108.164063 90.476563 108.164063 90.449219 108.164063 L 90.515625 108.199219 "/>
<path style=" stroke:none;fill-rule:nonzero;fill:rgb(100%,100%,100%);fill-opacity:1;" d="M 114.289063 72.703125 C 114.289063 72.703125 114.269531 72.675781 114.269531 72.609375 C 114.203125 72.105469 113.453125 69.613281 109.777344 67.941406 C 109.777344 67.941406 107.949219 67.972656 105.148438 66.046875 C 102.378906 64.144531 101.460938 60.570313 101.460938 60.570313 C 101.460938 60.570313 106.257813 59.945313 111.238281 66.574219 C 111.238281 66.574219 112 66.863281 112.046875 66.339844 L 109.476563 57.328125 C 109.476563 57.328125 104.929688 56.890625 104.046875 56.546875 C 103.144531 56.179688 101.503906 53.929688 100.863281 51.742188 C 100.863281 51.742188 100.257813 50.285156 99.964844 50.160156 C 99.964844 50.160156 101.582031 49.101563 103.375 50.78125 C 105.160156 52.457031 107.683594 55.382813 108.261719 56.382813 C 108.261719 56.382813 109.117188 56.519531 109.246094 56.085938 C 109.246094 56.085938 109.046875 49.769531 106.15625 47.6875 C 106.15625 47.6875 104.046875 48.023438 102.867188 47.4375 C 101.683594 46.878906 99.777344 44.6875 98.820313 41.777344 C 98.820313 41.777344 101.519531 40.835938 105.179688 45.265625 C 105.179688 45.265625 106.257813 45.679688 106.167969 45.035156 C 106.167969 45.035156 104.582031 38.464844 104.242188 38.050781 C 103.824219 37.59375 103.238281 36.886719 102.179688 36.761719 C 101.09375 36.601563 96.347656 36.753906 95.898438 32.152344 C 95.898438 32.152344 99.527344 31.589844 102.847656 34.730469 C 102.847656 34.730469 102.238281 30.503906 101.808594 29.429688 C 101.371094 28.351563 100.960938 28.335938 100.15625 28.265625 C 99.347656 28.1875 94.953125 28.988281 95.015625 23.726563 C 95.015625 23.726563 98.230469 24.601563 99.710938 25.703125 C 101.203125 26.8125 101.164063 26.503906 101.164063 26.503906 C 101.164063 26.503906 101.28125 25.453125 100.671875 24.4375 C 100.058594 23.394531 99.277344 21.578125 99.859375 20.199219 C 99.859375 20.199219 101.304688 20.835938 101.382813 22.390625 C 101.453125 23.925781 101.789063 25.035156 102.140625 24.984375 C 102.40625 24.953125 103.933594 22.953125 105.28125 22.355469 C 106.652344 21.789063 108.738281 22.140625 108.738281 22.140625 C 108.738281 22.140625 108.847656 24.300781 105.898438 25.121094 C 102.9375 25.945313 103.257813 25.394531 102.667969 25.777344 C 102.058594 26.171875 102.507813 28.011719 102.707031 28.289063 C 102.847656 28.574219 102.957031 30.65625 104.3125 30.921875 C 104.3125 30.921875 104.582031 31.109375 104.691406 30.8125 C 104.800781 30.523438 105.5 28.871094 106.835938 27.546875 C 108.148438 26.195313 109.535156 25.703125 110.433594 25.871094 C 110.433594 25.871094 109.457031 29.042969 107.761719 30.523438 C 106.136719 32.070313 104.214844 32.011719 104.214844 32.011719 C 104.214844 32.011719 104.421875 36.050781 105.050781 36.382813 C 105.679688 36.683594 105.808594 36.382813 106.136719 35.949219 C 106.464844 35.523438 106.976563 34.039063 108.53125 33.144531 C 110.101563 32.210938 111.738281 32 111.738281 32 C 111.738281 32 112.046875 34.640625 109.777344 36.519531 C 107.542969 38.347656 105.988281 38.148438 105.898438 38.40625 C 105.777344 38.734375 106.363281 43.558594 107.832031 43.898438 C 107.832031 43.898438 108.488281 43.679688 109.085938 42.015625 C 109.65625 40.355469 111.371094 37.339844 114.679688 38.078125 C 114.679688 38.078125 114.816406 41.347656 112.1875 43.382813 C 109.566406 45.429688 107.890625 45.503906 107.890625 45.503906 C 107.890625 45.503906 107.660156 46.550781 108.347656 47.773438 C 109.046875 49.019531 109.347656 49.949219 109.625 50.453125 C 109.90625 51.003906 110.863281 49.660156 110.941406 49.3125 C 111.039063 48.96875 112.304688 45.992188 117.21875 45.644531 C 117.21875 45.644531 116.753906 48.070313 116.503906 49.0625 C 116.203125 50.046875 114.699219 53.070313 109.90625 52.34375 C 109.90625 52.34375 110.761719 58.824219 111.878906 59.421875 C 111.878906 59.421875 112.398438 59.304688 112.746094 58.582031 C 113.105469 57.835938 114.019531 54.265625 119.203125 54.050781 C 119.203125 54.050781 119.5625 57.152344 118.476563 58.589844 C 117.339844 60.027344 113.960938 60.679688 112.476563 60.835938 C 112.476563 60.835938 112.136719 62.144531 112.714844 63.824219 C 113.265625 65.550781 113.601563 66.789063 113.933594 66.695313 C 114.269531 66.625 114.089844 66.132813 114.679688 65.328125 C 115.308594 64.53125 119.046875 61.003906 121.503906 61.527344 C 121.503906 61.527344 121.785156 63.824219 121.046875 65.152344 C 120.25 66.433594 118.386719 68.09375 116.632813 67.890625 C 114.839844 67.660156 114.550781 67.601563 114.5 67.746094 C 114.429688 67.941406 114.203125 68.453125 114.808594 70.320313 C 115.425781 72.144531 115.1875 72.714844 115.1875 72.714844 L 114.289063 72.703125 "/>
<path style=" stroke:none;fill-rule:nonzero;fill:rgb(100%,100%,100%);fill-opacity:1;" d="M 106.257813 78.785156 L 116.941406 94.433594 C 116.941406 94.433594 127.519531 90.210938 138.652344 93.300781 L 153.59375 93.335938 L 170.964844 85.304688 L 172.988281 78.203125 L 157.050781 79.558594 L 156.863281 75.703125 L 146.507813 75.671875 L 146.6875 72.644531 L 138.539063 69.984375 L 136.136719 77.460938 L 125.386719 77.246094 L 123.988281 79.667969 L 106.257813 78.785156 "/>
<path style=" stroke:none;fill-rule:nonzero;fill:rgb(100%,100%,100%);fill-opacity:1;" d="M 150.085938 61.152344 C 150.085938 61.152344 150.984375 62.636719 154.3125 62.5 C 157.609375 62.398438 158.460938 57.816406 159.515625 55.65625 C 160.582031 53.5 163.109375 51.867188 163.109375 51.867188 C 156.632813 48.882813 153.542969 53.953125 153.113281 56.863281 C 152.742188 59.8125 150.085938 61.152344 150.085938 61.152344 "/>
<path style=" stroke:none;fill-rule:nonzero;fill:rgb(100%,100%,100%);fill-opacity:1;" d="M 140.941406 67.644531 C 140.941406 67.644531 145.9375 68.992188 146.117188 68.570313 C 146.324219 68.164063 146.792969 67.472656 143.328125 66.328125 C 143.328125 66.328125 142.339844 65.535156 142.738281 64.414063 L 146.234375 64.132813 L 150.433594 66.464844 L 148.109375 70.816406 C 148.109375 70.816406 143.84375 71.109375 141.953125 69.875 C 140.0625 68.679688 140.941406 67.644531 140.941406 67.644531 "/>
<path style=" stroke:none;fill-rule:nonzero;fill:rgb(100%,100%,100%);fill-opacity:1;" d="M 119.632813 98.992188 C 119.632813 98.992188 104.472656 97.4375 105.269531 104.433594 C 105.269531 104.433594 110.851563 99.988281 119.511719 102.132813 L 119.632813 98.992188 "/>
<path style=" stroke:none;fill-rule:nonzero;fill:rgb(100%,100%,100%);fill-opacity:1;" d="M 123.597656 98.523438 L 124.296875 100.328125 C 124.296875 100.328125 133.757813 97.734375 139.152344 99.972656 C 144.503906 102.21875 146 102.945313 148.390625 102.460938 L 148.707031 98.523438 C 148.707031 98.523438 142.785156 97.683594 140.5625 97.15625 C 138.253906 96.648438 129.976563 94.050781 123.597656 98.523438 "/>
<path style=" stroke:none;fill-rule:nonzero;fill:rgb(100%,100%,100%);fill-opacity:1;" d="M 145.296875 106.308594 C 145.296875 106.308594 125.203125 102.449219 115.496094 107.8125 L 115.464844 109.648438 C 115.464844 109.648438 133.746094 105.421875 143.484375 110.855469 L 145.296875 106.308594 "/>
<path style=" stroke:none;fill-rule:nonzero;fill:rgb(100%,100%,100%);fill-opacity:1;" d="M 153.144531 100.972656 L 153.242188 96.347656 C 153.242188 96.347656 156.449219 94.074219 160.042969 94.09375 C 163.617188 94.097656 166.039063 95.082031 166.816406 95.082031 C 167.578125 95.082031 171.855469 95.214844 175.140625 92.648438 L 175.917969 97.878906 C 175.917969 97.878906 172.003906 100.925781 167.371094 99.9375 C 162.734375 98.90625 160.113281 98.820313 153.144531 100.972656 "/>
<path style=" stroke:none;fill-rule:nonzero;fill:rgb(100%,100%,100%);fill-opacity:1;" d="M 170.527344 103.667969 L 170.636719 103.570313 C 170.050781 104.019531 167.492188 104.039063 165.285156 103.667969 C 158.675781 102.160156 154.699219 103.210938 154.539063 103.246094 C 150.296875 104.191406 148.890625 106.996094 148.757813 107.304688 C 148.328125 108.3125 148.726563 109.445313 149.703125 109.960938 C 150.691406 110.433594 151.859375 110.027344 152.363281 109.046875 C 152.390625 109.015625 153.113281 107.714844 155.46875 107.183594 C 155.554688 107.175781 158.855469 106.371094 164.515625 107.636719 C 166.800781 108.046875 172.105469 108.679688 173.875 105.886719 C 174.476563 105.011719 174.164063 103.902344 173.320313 103.246094 C 172.488281 102.613281 171.234375 102.867188 170.527344 103.667969 "/>
<path style=" stroke:none;fill-rule:evenodd;fill:rgb(0%,59.599304%,28.999329%);fill-opacity:1;" d="M 20.523438 83.601563 L 22.136719 79.890625 C 21.429688 79.851563 25.039063 62.03125 26.035156 60.769531 C 27.050781 57.492188 26.703125 57.535156 25.328125 57.066406 C 24.558594 56.808594 23.304688 56.339844 22.648438 56.132813 L 21.691406 55.816406 C 21.070313 55.894531 20.59375 56.792969 20.371094 57.4375 C 18.871094 61.886719 17.59375 66.398438 16.882813 71.03125 L 15.710938 70.832031 C 16.519531 65.449219 18.191406 60.328125 19.855469 55.1875 L 17.535156 54.375 C 17.066406 54.246094 12.210938 72.710938 12.378906 74.699219 C 12.242188 76.59375 12.101563 78.496094 12.878906 78.5625 C 13.617188 78.621094 15.160156 78.742188 16.417969 78.855469 C 17.683594 78.957031 18.28125 77.523438 18.441406 75.484375 C 18.839844 73.761719 20.125 66.226563 20.753906 64.238281 C 20.851563 63.910156 21.011719 63.855469 21.214844 63.910156 L 21.867188 64.089844 C 22.191406 64.15625 22.199219 64.386719 22.070313 64.761719 C 21.652344 66.6875 20.125 72.964844 19.699219 77.976563 C 19.289063 83.980469 17.105469 83.960938 16.070313 83.945313 C 15.074219 83.90625 10.777344 83.832031 10.777344 83.832031 C 11.003906 73.546875 13.277344 63.585938 16.519531 54.027344 L 14.601563 53.382813 C 11.195313 63.234375 8.953125 73.597656 8.703125 84.28125 L 7.347656 84.269531 C 7.148438 86.054688 7.4375 87.757813 7.457031 89.507813 L 19.289063 89.050781 L 19.417969 90.941406 L 22.019531 90.796875 C 21.96875 88.40625 21.570313 85.960938 21.890625 83.632813 Z M 35.726563 133.234375 C 38.605469 131.289063 37.578125 128.296875 36.613281 126.667969 C 36.214844 125.816406 32.144531 118.292969 29.734375 110.375 C 27.3125 102.460938 26.613281 94.433594 26.453125 94.453125 L 24.101563 94.691406 C 23.296875 94.855469 29.457031 120.761719 32.804688 124.296875 C 34.757813 128.269531 32.972656 128.84375 32.972656 128.828125 C 31.636719 126.011719 30.164063 123.238281 28.867188 120.382813 L 27.074219 121.125 L 27.542969 116.800781 C 27.371094 116.875 23.046875 103.835938 22.855469 98.65625 C 22.039063 94.035156 20.683594 93.898438 19.617188 93.992188 C 18.601563 94.074219 16.117188 94.300781 14.015625 94.496094 C 11.882813 94.675781 11.496094 95.738281 12.171875 99.675781 C 12.34375 102.527344 14.425781 111.363281 15.75 115.757813 C 17.066406 119.292969 18.710938 118.34375 19.257813 118.160156 C 19.820313 117.960938 22.460938 117.0625 22.460938 117.0625 C 21.71875 115.21875 21.070313 113.34375 20.632813 111.394531 L 17.582031 112.414063 C 17.671875 112.390625 15.539063 105.621094 15.402344 103.292969 C 15.042969 101.015625 16.808594 101.203125 17.792969 101.046875 C 19.648438 100.75 20.78125 103.378906 21.652344 106.296875 C 22.199219 109.308594 25.011719 118.019531 25.238281 117.949219 L 24.609375 122.28125 L 15.582031 126.035156 L 18.191406 131.496094 L 28.527344 126.503906 L 30.402344 130.304688 L 20.304688 135.761719 L 23.457031 140.828125 L 33.582031 134.636719 L 34.628906 136.3125 L 36.78125 134.921875 C 36.78125 134.921875 36.472656 134.613281 35.726563 133.234375 Z M 89.191406 180.261719 C 91.085938 180.960938 99.070313 182.359375 101.09375 182.535156 C 102.597656 182.730469 104.152344 182.921875 104.832031 181.5 C 105.03125 180.515625 105.160156 178.074219 105.230469 177.386719 C 105.050781 176.355469 104.152344 175.652344 101.433594 175.230469 C 99.589844 175.003906 94.476563 174.261719 91.292969 173.292969 C 88.097656 172.488281 86.957031 173.238281 86.710938 174.046875 C 86.46875 174.835938 86.070313 176.105469 85.613281 177.632813 C 85.144531 179.144531 87.238281 179.761719 89.191406 180.261719 Z M 95.839844 176.871094 C 98.890625 177.308594 99.859375 177.875 99.765625 178.597656 C 99.636719 179.371094 99.667969 180.300781 95.453125 179.691406 C 91.292969 178.796875 91.425781 178.273438 91.652344 177.34375 C 91.902344 176.332031 92.820313 176.234375 95.839844 176.871094 Z M 52.878906 12.839844 C 42.84375 22.503906 34.667969 34.203125 28.675781 46.785156 L 24.703125 44.960938 C 24.660156 44.949219 25.449219 43.300781 25.855469 42.652344 C 28.441406 43.359375 30.980469 41.207031 30.980469 41.207031 C 30.683594 41.015625 40.90625 24.628906 41.996094 24.257813 C 42.574219 23.535156 42.503906 23.152344 42.292969 22.972656 C 42.125 22.835938 39.382813 20.726563 38.574219 20.101563 C 38.246094 19.859375 37.816406 20.101563 37.351563 20.707031 C 36.941406 20.671875 29.59375 31.589844 29.6875 31.628906 L 32.433594 33.28125 L 34.90625 29.507813 L 33.929688 28.863281 L 35.707031 26.195313 C 35.707031 26.195313 35.984375 26.382813 36.570313 26.792969 C 37.152344 27.1875 37.519531 28.109375 34.957031 31.984375 C 32.335938 35.808594 29.664063 36.804688 27.941406 35.871094 C 26.226563 34.9375 26.238281 31.9375 30.222656 26.105469 C 37.699219 14.84375 52.371094 11.664063 52.121094 11.789063 L 50.269531 9.933594 C 46.050781 10.289063 33.292969 15.550781 26.535156 26.46875 C 19.777344 37.210938 22.746094 41.207031 22.597656 41.097656 L 20.542969 43.441406 L 17.78125 42.203125 L 15.191406 48.273438 L 26.226563 52.585938 L 25.6875 53.886719 L 28.070313 54.785156 C 34.039063 39.816406 43.222656 25.847656 54.753906 14.605469 Z M 142.90625 175.582031 L 142.558594 174.476563 C 146.882813 172.851563 151.332031 171.535156 155.414063 169.371094 L 154.3125 167.109375 C 141.144531 173.425781 126.421875 176.621094 111.730469 176.105469 L 111.960938 178.621094 C 120.292969 178.804688 128.644531 178.003906 136.6875 175.988281 L 136.796875 176.46875 C 128.703125 180.140625 119.835938 182.667969 110.59375 183.882813 L 110.433594 188.402344 C 120.042969 188.800781 129.6875 187.835938 139.0625 185.53125 L 139.488281 187.359375 L 146.105469 185.683594 C 146.105469 185.683594 144.082031 179.339844 143.574219 177.746094 C 146.597656 176.660156 151.90625 174.757813 152.863281 175.652344 C 154.488281 177.097656 154.078125 178.230469 154.0625 178.222656 L 147.941406 180.4375 L 148.9375 183.28125 C 148.9375 183.25 152.824219 181.941406 156.007813 180.644531 C 159.863281 178.839844 159.8125 178.203125 158.019531 174.585938 C 155.703125 170.148438 142.992188 175.683594 142.90625 175.582031 Z M 138.34375 182.664063 C 138.34375 182.664063 137.9375 182.578125 137.324219 182.746094 C 135.957031 182.851563 136.246094 183.792969 119.234375 185.175781 C 125.59375 183.703125 131.675781 181.394531 137.355469 178.675781 Z M 40.070313 143.71875 C 45.542969 150.148438 51.574219 156.273438 58.640625 161.035156 L 58.324219 161.433594 C 51.972656 159.511719 35.90625 147.011719 36.203125 146.589844 L 32.484375 149.496094 C 31.917969 149.988281 49.917969 167.832031 51.671875 167.671875 C 52.660156 168.390625 52.96875 168.777344 52.726563 169.105469 C 52.46875 169.433594 51.671875 170.542969 51.671875 170.542969 C 53.476563 171.921875 55.332031 173.191406 57.292969 174.28125 L 63.664063 164.355469 L 68.199219 167.0625 C 68.199219 167.0625 63.496094 175.445313 62.867188 176.550781 C 62.269531 177.632813 61.433594 177.746094 59.855469 176.808594 C 58.28125 175.867188 56.308594 174.597656 56.308594 174.597656 L 55.21875 176.296875 C 55.242188 176.253906 59.6875 179.097656 63.335938 180.929688 C 67.015625 182.6875 67.78125 181.476563 68.328125 180.351563 C 68.867188 179.210938 73.503906 169.648438 73.503906 169.648438 L 76.5625 171.082031 L 71.839844 181.859375 C 73.679688 182.722656 75.664063 183.28125 77.570313 184.027344 L 81.667969 173.019531 L 83.167969 173.5625 L 84.011719 171.144531 C 67.503906 165.664063 52.78125 155.269531 41.902344 141.898438 Z M 54.863281 166.175781 L 54.542969 166.625 C 54.542969 166.625 54.335938 166.214844 53.738281 165.785156 C 52.847656 165.6875 39.59375 154.132813 39.960938 153.753906 C 45.363281 157.566406 51.09375 160.757813 56.976563 163.269531 Z M 177.21875 15.089844 L 175.511719 16.996094 C 184.570313 24.953125 192.1875 34.367188 197.5 44.917969 C 197.5 44.917969 195.9375 45.679688 195.128906 46.0625 C 194.222656 46.503906 194.070313 47.316406 195.726563 51.828125 C 198.769531 55.894531 202.421875 76.417969 201.925781 76.507813 L 204.605469 76.269531 C 205.253906 76.132813 200.648438 53.5 198.933594 52.632813 C 198.4375 51.386719 199.335938 50.839844 200.039063 50.558594 C 200.738281 51.613281 207.835938 69.351563 206.71875 87.996094 C 206.578125 106.503906 198.746094 123.238281 198.558594 123.027344 C 198.558594 123.027344 197.777344 122.675781 197.421875 122.53125 C 197.070313 122.363281 197 122.109375 198.058594 119.949219 C 200.148438 118.0625 206.492188 89.820313 204.847656 89.582031 L 202.550781 89.484375 C 204.324219 89.75 197.402344 119.433594 194.628906 121.730469 C 193.304688 124.457031 193.054688 127.09375 195.847656 128.597656 C 193.503906 132.429688 193.097656 133.058594 193.097656 133.058594 C 192.886719 136.394531 171.476563 158.890625 170.40625 157.742188 C 170.40625 157.742188 169.898438 157.085938 169.648438 156.773438 C 169.410156 156.488281 169.304688 156.34375 171.253906 154.898438 C 174.015625 154.238281 193.304688 132.363281 191.996094 131.414063 L 190.046875 130.246094 C 191.414063 131.222656 171.019531 154.222656 167.40625 154.917969 C 164.964844 156.773438 163.609375 158.835938 165.316406 161.394531 L 161.828125 163.472656 L 163.160156 165.664063 L 166.75 163.496094 L 173.351563 173.277344 C 175.410156 172.015625 177.265625 170.476563 179.210938 169.085938 L 171.960938 159.761719 C 179.746094 153.824219 186.875 146.878906 192.425781 138.804688 L 194.886719 140.488281 C 194.886719 140.488281 193.015625 142.625 192.1875 143.710938 C 190.8125 145.507813 191.4375 147.160156 191.4375 147.160156 L 190.570313 148.15625 C 190.5625 148.15625 188.777344 148.042969 187.847656 149.097656 C 186.929688 150.183594 182.480469 154.945313 180.742188 156.230469 C 179.144531 157.683594 178.207031 159.214844 179.277344 160.460938 C 180.355469 161.703125 181.730469 163.269531 182.097656 163.710938 C 182.449219 164.144531 182.917969 164.660156 186.207031 161.714844 C 189.707031 158.949219 194.699219 152.902344 194.789063 152.96875 L 192.695313 151.226563 C 190.253906 153.742188 188.128906 156.550781 185.417969 158.785156 C 185.417969 158.769531 184.898438 158.078125 184.449219 157.613281 C 183.976563 157.128906 185.320313 155.652344 187.074219 153.628906 C 188.875 151.65625 190.09375 150.433594 191.71875 150.242188 C 192.449219 149.496094 193.371094 148.417969 193.347656 148.378906 C 193.347656 148.378906 192.644531 147.085938 194.039063 145.246094 C 196.433594 142.113281 197.257813 142.390625 197.257813 142.390625 L 202.007813 145.664063 C 203.5625 143.765625 204.636719 141.589844 205.996094 139.550781 L 195.824219 133.542969 L 198.117188 129.792969 L 208.59375 135.375 L 211.753906 128.941406 L 200.890625 124.085938 C 201.785156 122.445313 202.464844 120.703125 203.070313 118.957031 C 203.070313 118.957031 205.253906 119.773438 205.765625 119.972656 C 206.242188 120.160156 206.59375 119.84375 206.976563 118.839844 C 208.359375 115.847656 210.207031 108.507813 210.40625 107.554688 C 210.738281 106.347656 211.386719 106.371094 211.960938 106.488281 C 211.574219 107.691406 209.738281 115.652344 208.871094 117.191406 C 208.273438 118.8125 208.664063 120.550781 210.207031 121.125 C 211.753906 121.707031 214.363281 122.675781 214.363281 122.675781 C 216.589844 117.351563 217.925781 111.761719 219.277344 106.167969 L 216.398438 105.609375 L 213.847656 115.585938 C 213.847656 115.585938 213.488281 115.464844 212.992188 115.328125 C 212.519531 115.175781 212.164063 114.574219 213.207031 110.484375 C 214.46875 106.417969 215.160156 101.300781 215.394531 99.65625 C 215.628906 98.035156 216.171875 95.753906 218.09375 95.929688 C 219.988281 96.125 220.824219 96.199219 220.824219 96.199219 L 221.203125 88.589844 L 209.320313 88.257813 C 209.371094 86.753906 209.527344 85.265625 209.382813 83.765625 C 209.382813 83.765625 219.074219 83.609375 220.035156 83.601563 C 220.984375 83.570313 221.257813 82.722656 221.164063 81.136719 C 221.082031 79.558594 220.902344 76.265625 220.832031 75.042969 C 220.757813 73.8125 220.140625 74 219.4375 74.058594 C 218.75 74.136719 217.441406 73.546875 217.605469 76.632813 C 215.8125 76.765625 209.054688 77.304688 209.054688 77.304688 C 208.984375 75.675781 208.871094 74.085938 208.574219 72.507813 L 220.347656 71.03125 C 221.324219 70.855469 214.292969 44.03125 212.105469 41.816406 C 211.003906 39.335938 209.644531 38.863281 208.015625 39.664063 C 206.371094 40.464844 202.988281 42.117188 202.988281 42.117188 C 205.644531 47.476563 208.015625 53.027344 209.441406 58.851563 L 211.832031 58.191406 C 211.871094 58.175781 209.953125 51.214844 209.082031 49.78125 C 208.484375 48.273438 208.394531 47.046875 209.277344 46.6875 C 210.160156 46.328125 210.601563 46.023438 211.355469 47.917969 C 212.542969 49.660156 216.4375 63.945313 216.171875 63.980469 L 207.449219 65.703125 C 204.925781 53.382813 199.75 41.664063 192.246094 31.5 L 197.007813 28.125 C 197.257813 27.941406 190.613281 20.234375 189.78125 19.277344 C 188.9375 18.304688 189.058594 17.570313 189.421875 17.230469 C 189.78125 16.894531 190.8125 15.949219 190.8125 15.949219 C 190.929688 15.851563 201.03125 27.90625 201.425781 29.28125 C 202.1875 30.375 202.574219 31.261719 201.269531 32.070313 C 199.992188 32.871094 197.523438 34.410156 197.523438 34.410156 C 198.769531 36.074219 199.644531 37.941406 200.648438 39.757813 C 200.648438 39.757813 206.8125 36.464844 207.476563 36.105469 C 208.085938 35.808594 209.054688 35.558594 205.523438 29.867188 C 202.09375 24.054688 191.6875 11.941406 189.855469 10.839844 C 188.328125 9.375 187.503906 9.171875 186.808594 9.929688 C 186.105469 10.652344 182.691406 14.210938 182.171875 14.75 C 181.640625 15.289063 181.515625 15.796875 182.421875 16.648438 C 182.707031 16.941406 184.832031 19.039063 185.140625 19.269531 C 185.660156 19.632813 185.886719 19.632813 186.292969 19.316406 C 187.53125 20.523438 189.609375 23.105469 189.617188 23.074219 L 187.132813 25.171875 C 184.230469 21.445313 180.546875 18.441406 177.21875 15.089844 Z M 214.007813 95.8125 L 213.207031 100.929688 C 213.207031 100.929688 211.960938 100.75 210.878906 100.574219 C 209.832031 100.402344 209.382813 100.675781 209.183594 102.007813 C 209.320313 102.691406 207.449219 109.785156 207 111.332031 C 206.9375 111.496094 206.878906 111.574219 206.789063 111.550781 C 206.511719 111.492188 205.964844 111.347656 205.625 111.214844 C 205.375 111.066406 205.4375 110.902344 205.523438 110.523438 C 206.140625 109.753906 208.78125 95.308594 208.546875 95.246094 Z M 83.371094 185.449219 C 90.257813 187.382813 97.316406 188.734375 104.441406 189.425781 L 104.800781 185.53125 C 97.882813 184.847656 91.066406 183.53125 84.367188 181.636719 L 83.371094 185.449219 "/>
<g clip-path="url(#clip1)" clip-rule="nonzero">
<path style=" stroke:none;fill-rule:nonzero;fill:rgb(0%,59.599304%,28.999329%);fill-opacity:1;" d="M 115.125 201.570313 C 51.773438 201.570313 0.148438 150.226563 0 86.996094 C -0.0625 52.246094 15.289063 20.546875 42.164063 0.00390625 L 44.566406 3.15625 C 18.699219 22.929688 3.898438 53.488281 3.96875 86.996094 C 4.109375 148.03125 53.957031 197.597656 115.125 197.605469 C 115.199219 197.605469 115.277344 197.605469 115.355469 197.605469 C 145.039063 197.539063 172.921875 185.953125 193.871094 164.96875 C 214.820313 143.992188 226.316406 116.128906 226.226563 86.523438 C 226.179688 56.121094 211.386719 24.925781 186.664063 3.0625 L 189.285156 0.0976563 C 214.84375 22.699219 230.144531 55.003906 230.203125 86.515625 C 230.285156 117.183594 218.371094 146.03125 196.671875 167.769531 C 174.980469 189.503906 146.105469 201.503906 115.367188 201.570313 C 115.277344 201.570313 115.199219 201.570313 115.125 201.570313 "/>
</g>
</g>
</svg>
