<?xml version="1.0" encoding="UTF-8"?>
<svg xmlns="http://www.w3.org/2000/svg" xmlns:xlink="http://www.w3.org/1999/xlink" width="237.8pt" height="48.1pt" viewBox="0 0 237.8 48.1" version="1.1">
<defs>
<clipPath id="clip1">
  <path d="M 206 0 L 237.800781 0 L 237.800781 27 L 206 27 Z M 206 0 "/>
</clipPath>
<clipPath id="clip2">
  <path d="M 203 0 L 237.800781 0 L 237.800781 30 L 203 30 Z M 203 0 "/>
</clipPath>
<clipPath id="clip3">
  <path d="M 71 35 L 84 35 L 84 48.101563 L 71 48.101563 Z M 71 35 "/>
</clipPath>
<clipPath id="clip4">
  <path d="M 228 36 L 237.800781 36 L 237.800781 48 L 228 48 Z M 228 36 "/>
</clipPath>
<clipPath id="clip5">
  <path d="M 0 30 L 237.800781 30 L 237.800781 32 L 0 32 Z M 0 30 "/>
</clipPath>
</defs>
<g id="surface1">
<path style=" stroke:none;fill-rule:nonzero;fill:rgb(2.69928%,30.599976%,63.499451%);fill-opacity:1;" d="M 25.039063 4.320313 C 22.894531 1.445313 20.1875 0.00390625 16.910156 0.00390625 L 0.105469 0.00390625 L 0.105469 26.445313 L 15.925781 26.445313 C 19.496094 26.445313 22.441406 25.007813 24.757813 22.09375 C 26.878906 19.40625 27.929688 16.34375 27.929688 12.929688 C 27.929688 9.765625 26.96875 6.90625 25.039063 4.320313 M 17.273438 17.621094 C 16.375 19.125 15.097656 19.863281 13.445313 19.863281 L 9.238281 19.863281 L 9.238281 6.667969 L 13.824219 6.667969 C 15.46875 6.667969 16.699219 7.445313 17.484375 8.992188 C 18.101563 10.183594 18.390625 11.625 18.390625 13.265625 C 18.390625 14.960938 18.023438 16.414063 17.273438 17.621094 "/>
<path style=" stroke:none;fill-rule:nonzero;fill:rgb(2.69928%,30.599976%,63.499451%);fill-opacity:1;" d="M 54.71875 26.445313 L 44.675781 26.445313 L 44.675781 16.296875 L 35.300781 16.296875 L 35.300781 26.445313 L 25.082031 26.445313 L 25.082031 0.00390625 L 35.300781 0.00390625 L 35.300781 8.953125 L 44.675781 8.953125 L 44.675781 0.00390625 L 54.71875 0.00390625 "/>
<path style=" stroke:none;fill-rule:nonzero;fill:rgb(2.69928%,30.599976%,63.499451%);fill-opacity:1;" d="M 70.675781 0.00390625 L 60.898438 0.00390625 L 50.171875 26.445313 L 59.6875 26.445313 L 60.804688 23.140625 L 70.59375 23.140625 L 71.667969 26.445313 L 81.476563 26.445313 Z M 62.578125 17.585938 L 65.613281 8.695313 L 65.953125 8.695313 L 68.808594 17.585938 Z M 62.578125 17.585938 "/>
<path style=" stroke:none;fill-rule:nonzero;fill:rgb(2.69928%,30.599976%,63.499451%);fill-opacity:1;" d="M 108.523438 26.445313 L 96.816406 26.445313 L 89.246094 16.007813 L 86.863281 18.191406 L 86.863281 26.445313 L 76.949219 26.445313 L 76.949219 0.00390625 L 86.863281 0.00390625 L 86.863281 8.273438 L 87.222656 8.273438 L 95.714844 0.00390625 L 107.644531 0.00390625 L 96.414063 9.953125 "/>
<path style=" stroke:none;fill-rule:nonzero;fill:rgb(39.599609%,60.398865%,82.398987%);fill-opacity:1;" d="M 204.660156 26.105469 L 197.433594 26.105469 L 187.265625 13.21875 L 187.265625 26.105469 L 178.046875 26.105469 L 178.046875 0.390625 L 187.265625 0.390625 L 197.472656 14.34375 L 197.472656 0.367188 L 204.660156 0.367188 "/>
<path style="fill:none;stroke-width:6.3;stroke-linecap:butt;stroke-linejoin:miter;stroke:rgb(13.699341%,12.199402%,12.5%);stroke-opacity:1;stroke-miterlimit:4;" d="M 2046.601563 219.945313 L 1974.335938 219.945313 L 1872.65625 348.8125 L 1872.65625 219.945313 L 1780.46875 219.945313 L 1780.46875 477.09375 L 1872.65625 477.09375 L 1974.726563 337.5625 L 1974.726563 477.328125 L 2046.601563 477.328125 Z M 2046.601563 219.945313 " transform="matrix(0.1,0,0,-0.1,0,48.1)"/>
<g clip-path="url(#clip1)" clip-rule="nonzero">
<path style=" stroke:none;fill-rule:nonzero;fill:rgb(39.599609%,60.398865%,82.398987%);fill-opacity:1;" d="M 237.097656 26.09375 L 224.773438 26.09375 L 217.433594 16.40625 L 215.136719 18.558594 L 215.132813 26.09375 L 206.675781 26.09375 L 206.675781 0.421875 L 215.136719 0.421875 L 215.136719 9.542969 L 224.859375 0.339844 L 236.355469 0.339844 L 224.96875 10.519531 "/>
</g>
<g clip-path="url(#clip2)" clip-rule="nonzero">
<path style="fill:none;stroke-width:6.3;stroke-linecap:butt;stroke-linejoin:miter;stroke:rgb(13.699341%,12.199402%,12.5%);stroke-opacity:1;stroke-miterlimit:4;" d="M 2370.976563 220.0625 L 2247.734375 220.0625 L 2174.335938 316.9375 L 2151.367188 295.414063 L 2151.328125 220.0625 L 2066.757813 220.0625 L 2066.757813 476.78125 L 2151.367188 476.78125 L 2151.367188 385.570313 L 2248.59375 477.601563 L 2363.554688 477.601563 L 2249.6875 375.804688 Z M 2370.976563 220.0625 " transform="matrix(0.1,0,0,-0.1,0,48.1)"/>
</g>
<path style="fill-rule:nonzero;fill:rgb(39.599609%,60.398865%,82.398987%);fill-opacity:1;stroke-width:6.3;stroke-linecap:butt;stroke-linejoin:miter;stroke:rgb(13.699341%,12.199402%,12.5%);stroke-opacity:1;stroke-miterlimit:4;" d="M 1719.0625 476.9375 L 1617.96875 476.9375 L 1507.148438 220.101563 L 1605.46875 220.101563 L 1617.1875 251.859375 L 1718.164063 251.859375 L 1729.375 220.101563 L 1830.976563 220.101563 Z M 1635.507813 304.789063 L 1666.640625 390.414063 L 1670.15625 390.414063 L 1699.609375 304.789063 Z M 1635.507813 304.789063 " transform="matrix(0.1,0,0,-0.1,0,48.1)"/>
<path style=" stroke:none;fill-rule:nonzero;fill:rgb(39.599609%,60.398865%,82.398987%);fill-opacity:1;" d="M 146.371094 19.6875 C 145.945313 20.242188 145.367188 20.503906 144.640625 20.503906 L 138.421875 20.503906 L 138.421875 15.792969 L 143.570313 15.792969 C 144.484375 15.792969 145.296875 15.96875 145.976563 16.339844 C 146.664063 16.679688 147.015625 17.21875 147.015625 17.90625 C 147.015625 18.546875 146.796875 19.144531 146.371094 19.6875 M 155.640625 15.214844 C 154.835938 14.042969 153.679688 13.160156 152.222656 12.535156 C 153.304688 11.878906 154.160156 11.078125 154.777344 10.152344 C 155.398438 9.210938 155.699219 8.214844 155.699219 7.132813 C 155.699219 5.21875 154.851563 3.664063 153.148438 2.496094 C 151.441406 1.316406 149.390625 0.457031 147.015625 0.457031 L 128.589844 0.457031 L 128.589844 26.089844 L 146.449219 26.089844 C 149.136719 26.089844 151.488281 25.464844 153.515625 24.242188 C 155.742188 22.914063 156.867188 21.175781 156.867188 19.027344 C 156.867188 17.644531 156.464844 16.371094 155.640625 15.214844 M 145.472656 10.324219 C 144.679688 10.757813 143.972656 10.980469 143.320313 10.980469 L 138.421875 10.980469 L 138.421875 6.65625 L 144.605469 6.65625 C 145.25 6.65625 145.746094 6.878906 146.101563 7.332031 C 146.449219 7.785156 146.636719 8.3125 146.636719 8.898438 C 146.636719 9.402344 146.253906 9.875 145.472656 10.324219 "/>
<path style="fill:none;stroke-width:6.3;stroke-linecap:butt;stroke-linejoin:miter;stroke:rgb(13.699341%,12.199402%,12.5%);stroke-opacity:1;stroke-miterlimit:4;" d="M 1463.710938 284.125 C 1459.453125 278.578125 1453.671875 275.960938 1446.40625 275.960938 L 1384.21875 275.960938 L 1384.21875 323.070313 L 1435.703125 323.070313 C 1444.84375 323.070313 1452.96875 321.3125 1459.765625 317.601563 C 1466.640625 314.203125 1470.15625 308.8125 1470.15625 301.9375 C 1470.15625 295.53125 1467.96875 289.554688 1463.710938 284.125 Z M 1556.40625 328.851563 C 1548.359375 340.570313 1536.796875 349.398438 1522.226563 355.648438 C 1533.046875 362.210938 1541.601563 370.21875 1547.773438 379.476563 C 1553.984375 388.890625 1556.992188 398.851563 1556.992188 409.671875 C 1556.992188 428.8125 1548.515625 444.359375 1531.484375 456.039063 C 1514.414063 467.835938 1493.90625 476.429688 1470.15625 476.429688 L 1285.898438 476.429688 L 1285.898438 220.101563 L 1464.492188 220.101563 C 1491.367188 220.101563 1514.882813 226.351563 1535.15625 238.578125 C 1557.421875 251.859375 1568.671875 269.242188 1568.671875 290.726563 C 1568.671875 304.554688 1564.648438 317.289063 1556.40625 328.851563 Z M 1454.726563 377.757813 C 1446.796875 373.421875 1439.726563 371.195313 1433.203125 371.195313 L 1384.21875 371.195313 L 1384.21875 414.4375 L 1446.054688 414.4375 C 1452.5 414.4375 1457.460938 412.210938 1461.015625 407.679688 C 1464.492188 403.148438 1466.367188 397.875 1466.367188 392.015625 C 1466.367188 386.976563 1462.539063 382.25 1454.726563 377.757813 Z M 1454.726563 377.757813 " transform="matrix(0.1,0,0,-0.1,0,48.1)"/>
<path style=" stroke:none;fill-rule:nonzero;fill:rgb(2.69928%,30.599976%,63.499451%);fill-opacity:1;" d="M 122.4375 0.00390625 L 112.496094 0.00390625 L 101.589844 26.445313 L 111.269531 26.445313 L 112.414063 23.140625 L 122.363281 23.140625 L 123.441406 26.445313 L 133.433594 26.445313 Z M 114.203125 17.585938 L 117.296875 8.695313 L 117.644531 8.695313 L 120.542969 17.585938 Z M 114.203125 17.585938 "/>
<path style=" stroke:none;fill-rule:nonzero;fill:rgb(13.699341%,12.199402%,12.5%);fill-opacity:1;" d="M 0.105469 47.660156 L 0.105469 36.097656 L 1.167969 36.097656 L 1.167969 46.679688 L 5.21875 46.679688 L 5.21875 47.660156 "/>
<path style=" stroke:none;fill-rule:nonzero;fill:rgb(13.699341%,12.199402%,12.5%);fill-opacity:1;" d="M 37.378906 47.660156 L 38.417969 47.660156 L 38.417969 36.097656 L 37.378906 36.097656 Z M 37.378906 47.660156 "/>
<g clip-path="url(#clip3)" clip-rule="nonzero">
<path style=" stroke:none;fill-rule:nonzero;fill:rgb(13.699341%,12.199402%,12.5%);fill-opacity:1;" d="M 77.183594 48.101563 L 73.054688 38.808594 L 72.15625 47.660156 L 71.058594 47.660156 L 72.65625 35.574219 L 77.171875 45.894531 L 81.847656 35.574219 L 83.347656 47.660156 L 82.242188 47.660156 L 81.375 38.808594 "/>
</g>
<path style=" stroke:none;fill-rule:nonzero;fill:rgb(13.699341%,12.199402%,12.5%);fill-opacity:1;" d="M 116.011719 47.660156 L 117.078125 47.660156 L 117.078125 36.097656 L 116.011719 36.097656 Z M 116.011719 47.660156 "/>
<path style=" stroke:none;fill-rule:nonzero;fill:rgb(13.699341%,12.199402%,12.5%);fill-opacity:1;" d="M 152.523438 47.660156 L 152.523438 37.0625 L 149.296875 37.0625 L 149.296875 36.097656 L 156.835938 36.097656 L 156.835938 37.0625 L 153.585938 37.0625 L 153.585938 47.660156 "/>
<path style=" stroke:none;fill-rule:nonzero;fill:rgb(13.699341%,12.199402%,12.5%);fill-opacity:1;" d="M 189.113281 47.660156 L 189.113281 36.097656 L 194.925781 36.097656 L 194.925781 37.0625 L 190.171875 37.0625 L 190.171875 40.703125 L 194.925781 40.703125 L 194.925781 41.679688 L 190.171875 41.679688 L 190.171875 46.679688 L 194.925781 46.679688 L 194.925781 47.660156 "/>
<g clip-path="url(#clip4)" clip-rule="nonzero">
<path style=" stroke:none;fill-rule:nonzero;fill:rgb(13.699341%,12.199402%,12.5%);fill-opacity:1;" d="M 229.832031 47.660156 L 230.203125 47.660156 C 231.648438 47.660156 232.707031 47.566406 233.355469 47.40625 C 234.015625 47.25 234.59375 46.96875 235.109375 46.59375 C 235.746094 46.089844 236.242188 45.457031 236.578125 44.648438 C 236.925781 43.839844 237.097656 42.914063 237.097656 41.871094 C 237.097656 40.847656 236.925781 39.921875 236.578125 39.105469 C 236.242188 38.304688 235.734375 37.652344 235.085938 37.128906 C 234.59375 36.753906 234.003906 36.480469 233.328125 36.324219 C 232.644531 36.164063 231.476563 36.097656 229.832031 36.097656 L 228.019531 36.097656 L 228.019531 47.660156 Z M 229.074219 36.976563 L 230.230469 36.976563 C 231.585938 36.976563 232.515625 37.039063 233.066406 37.171875 C 233.601563 37.320313 234.050781 37.550781 234.433594 37.882813 C 234.925781 38.304688 235.3125 38.863281 235.570313 39.535156 C 235.808594 40.203125 235.945313 40.988281 235.945313 41.871094 C 235.945313 42.722656 235.808594 43.5 235.570313 44.164063 C 235.3125 44.835938 234.9375 45.402344 234.453125 45.867188 C 234.09375 46.171875 233.671875 46.40625 233.160156 46.53125 C 232.65625 46.664063 231.789063 46.746094 230.574219 46.746094 L 229.074219 46.746094 "/>
</g>
<g clip-path="url(#clip5)" clip-rule="nonzero">
<path style="fill:none;stroke-width:6.76;stroke-linecap:butt;stroke-linejoin:miter;stroke:rgb(13.699341%,12.199402%,12.5%);stroke-opacity:1;stroke-miterlimit:4;" d="M 0 172.171875 L 2378.007813 172.171875 " transform="matrix(0.1,0,0,-0.1,0,48.1)"/>
</g>
</g>
</svg>
