<?xml version="1.0" encoding="UTF-8"?>
<svg xmlns="http://www.w3.org/2000/svg" xmlns:xlink="http://www.w3.org/1999/xlink" width="258pt" height="270.24pt" viewBox="0 0 258 270.24" version="1.1">
<defs>
<clipPath id="clip1">
  <path d="M 0 0 L 258 0 L 258 270.238281 L 0 270.238281 Z M 0 0 "/>
</clipPath>
</defs>
<g id="surface1">
<g clip-path="url(#clip1)" clip-rule="nonzero">
<path style=" stroke:none;fill-rule:nonzero;fill:rgb(100%,100%,100%);fill-opacity:1;" d="M 258.003906 232.835938 C 258.003906 253.492188 241.015625 270.238281 220.078125 270.238281 L 37.917969 270.238281 C 16.980469 270.238281 0 253.492188 0 232.835938 L 0 37.40625 C 0 16.738281 16.980469 -0.00390625 37.917969 -0.00390625 L 220.078125 -0.00390625 C 241.015625 -0.00390625 258.003906 16.738281 258.003906 37.40625 "/>
</g>
<path style=" stroke:none;fill-rule:nonzero;fill:rgb(13.299561%,12.199402%,12.199402%);fill-opacity:1;" d="M 40.710938 239.378906 C 41.234375 238.796875 41.605469 238.34375 41.808594 237.949219 C 42.015625 237.542969 42.121094 237.183594 42.121094 236.867188 C 42.121094 236.394531 41.933594 235.953125 41.542969 235.605469 C 40.964844 235.078125 40.171875 234.714844 39.121094 234.449219 C 38.355469 234.300781 37.53125 234.207031 36.546875 234.207031 C 35.335938 234.207031 34.027344 234.082031 32.613281 233.835938 C 32.46875 233.832031 31.671875 233.660156 30.238281 233.410156 C 28.800781 233.121094 27.835938 232.796875 27.347656 232.441406 C 26.859375 232.082031 26.515625 231.570313 26.285156 230.917969 C 26.265625 230.71875 26.222656 230.53125 26.222656 230.3125 C 26.222656 229.148438 27.203125 227.941406 29.183594 226.695313 C 30.753906 225.703125 32.28125 225.03125 33.777344 224.664063 C 34.742188 224.382813 35.589844 224.191406 36.363281 224.058594 C 37.59375 223.792969 38.617188 223.707031 39.484375 223.707031 C 40.546875 223.707031 41.378906 223.886719 42.070313 224.167969 C 42.75 224.464844 43.226563 224.976563 43.5 225.730469 C 42.835938 226.050781 42.253906 226.28125 41.734375 226.425781 C 41.210938 226.523438 40.601563 226.574219 39.878906 226.574219 L 40.710938 225.464844 C 39.832031 225.230469 38.933594 225.097656 38.011719 225.097656 C 36.957031 225.097656 35.945313 225.253906 34.90625 225.542969 C 33.859375 225.84375 32.757813 226.28125 31.5625 226.859375 C 30.707031 227.261719 29.894531 227.773438 29.253906 228.300781 C 28.40625 229.011719 27.984375 229.648438 27.984375 230.246094 C 27.984375 230.578125 28.117188 230.898438 28.386719 231.21875 C 28.640625 231.492188 29.082031 231.789063 29.628906 232.023438 C 30.839844 232.570313 32.394531 232.890625 34.277344 233.03125 C 36.183594 233.167969 37.929688 233.285156 39.617188 233.402344 C 40.710938 233.550781 41.542969 233.734375 42.070313 233.953125 C 42.921875 234.300781 43.5 234.867188 43.769531 235.605469 C 43.902344 235.886719 43.945313 236.253906 43.945313 236.628906 C 43.945313 237.871094 43.328125 239.164063 42.015625 240.542969 C 40.851563 241.722656 39.617188 242.621094 38.238281 243.234375 C 37.394531 243.605469 36.605469 243.953125 35.808594 244.332031 C 34.785156 244.75 33.945313 245.003906 33.234375 245.128906 C 33.007813 245.136719 32.679688 245.175781 32.304688 245.257813 C 31.9375 245.324219 31.640625 245.324219 31.457031 245.324219 C 31.140625 245.324219 30.878906 245.324219 30.761719 245.257813 C 30.636719 245.257813 30.425781 245.199219 30.167969 245.128906 C 29.648438 244.914063 29.304688 244.75 29.15625 244.535156 C 28.980469 244.332031 28.890625 244.003906 28.800781 243.511719 C 29.214844 243.722656 29.648438 243.90625 30.136719 244.003906 C 30.636719 244.105469 31.121094 244.164063 31.605469 244.164063 C 33.148438 244.164063 34.800781 243.671875 36.578125 242.667969 C 38.125 241.832031 39.496094 240.742188 40.710938 239.378906 "/>
<path style=" stroke:none;fill-rule:evenodd;fill:rgb(13.299561%,12.199402%,12.199402%);fill-opacity:1;" d="M 49.859375 239.964844 C 49.894531 240.152344 50.105469 240.808594 50.492188 241.953125 C 50.78125 242.738281 50.941406 243.445313 50.941406 244.019531 C 49.910156 243.878906 49.089844 243.238281 48.535156 242.101563 C 48.007813 240.96875 47.730469 239.699219 47.730469 238.363281 C 47.730469 237.324219 47.875 236.484375 48.152344 235.875 C 48.695313 236.328125 49.132813 237.121094 49.429688 238.257813 C 49.605469 239.03125 49.773438 239.601563 49.859375 239.964844 M 50.105469 232.867188 C 49.59375 232.867188 48.925781 232.949219 48.132813 233.121094 C 47.335938 233.34375 46.757813 233.410156 46.351563 233.410156 C 46.175781 233.410156 46.019531 233.402344 45.941406 233.402344 C 46.382813 232.179688 47.074219 231.601563 48.050781 231.601563 C 48.855469 231.601563 49.507813 232.023438 50.105469 232.867188 "/>
<path style=" stroke:none;fill-rule:nonzero;fill:rgb(13.299561%,12.199402%,12.199402%);fill-opacity:1;" d="M 55.347656 244.285156 C 54.742188 244.019531 54.355469 243.449219 54.058594 242.601563 C 53.964844 242.253906 53.84375 241.546875 53.722656 240.507813 C 53.320313 238.878906 52.96875 237.226563 52.597656 235.605469 C 52.554688 235.277344 52.507813 234.960938 52.484375 234.640625 C 52.429688 234.300781 52.429688 234.117188 52.429688 234.082031 C 52.429688 233.535156 52.597656 233.25 52.910156 233.25 C 53.019531 233.25 53.21875 233.34375 53.457031 233.449219 C 53.722656 233.550781 53.945313 234.015625 54.167969 234.820313 C 54.355469 235.398438 54.460938 236.035156 54.515625 236.660156 C 54.632813 237.839844 54.742188 239 54.890625 240.128906 C 55.179688 241.496094 55.71875 242.433594 56.476563 242.964844 C 56.972656 242.066406 57.464844 241.171875 58 240.246094 C 58.511719 239.273438 58.945313 238.375 59.226563 237.503906 C 59.472656 236.898438 59.695313 236.453125 59.929688 236.207031 C 60.210938 235.917969 60.464844 235.769531 60.746094 235.769531 C 61.222656 235.769531 61.707031 236.113281 62.242188 236.8125 C 62.667969 237.324219 63.015625 238.03125 63.371094 238.84375 C 63.660156 239.503906 63.929688 240.019531 64.242188 240.328125 C 64.527344 240.621094 64.816406 240.75 65.140625 240.75 C 65.652344 240.75 66.492188 240.101563 67.664063 238.714844 C 68.832031 237.324219 69.828125 236.628906 70.5625 236.628906 C 71.152344 236.628906 71.695313 236.933594 72.257813 237.503906 C 72.628906 237.898438 73.011719 238.417969 73.359375 239.070313 C 73.796875 239.988281 74.285156 240.933594 74.742188 241.863281 C 74.933594 242.1875 75.070313 242.332031 75.152344 242.433594 C 75.277344 242.519531 75.496094 242.601563 75.78125 242.667969 C 76.089844 242.765625 76.328125 242.777344 76.484375 242.777344 C 76.652344 242.777344 76.808594 243.058594 76.933594 243.511719 C 76.484375 243.699219 75.996094 243.8125 75.519531 243.8125 C 74.640625 243.8125 73.886719 243.339844 73.234375 242.355469 C 73.070313 242.1875 72.570313 241.136719 71.695313 239.378906 C 71.3125 238.609375 70.859375 238.195313 70.386719 238.195313 C 70.027344 238.195313 69.59375 238.472656 69.140625 239 C 68.875 239.273438 68.519531 239.789063 68.09375 240.507813 C 67.539063 241.386719 67.019531 241.988281 66.535156 242.289063 C 66.035156 242.621094 65.53125 242.738281 65.074219 242.667969 C 64.082031 242.574219 63.214844 241.863281 62.464844 240.542969 C 61.503906 238.785156 60.863281 237.714844 60.621094 237.503906 C 59.976563 239.164063 59.382813 240.507813 58.894531 241.523438 C 57.949219 243.449219 57.023438 244.425781 56.015625 244.425781 C 55.828125 244.425781 55.597656 244.390625 55.347656 244.285156 "/>
<path style=" stroke:none;fill-rule:nonzero;fill:rgb(13.299561%,12.199402%,12.199402%);fill-opacity:1;" d="M 89.6875 237.226563 C 90.289063 237.898438 90.539063 238.597656 90.539063 239.273438 C 90.539063 240.46875 89.6875 241.523438 88.015625 242.410156 C 86.46875 243.199219 84.90625 243.617188 83.285156 243.617188 C 82.84375 243.617188 82.488281 243.585938 82.207031 243.511719 C 83.753906 243.058594 84.90625 242.667969 85.601563 242.332031 C 86.996094 241.6875 87.875 240.875 88.300781 239.964844 C 88.460938 239.601563 88.519531 239.273438 88.519531 239 C 88.519531 238.375 88.152344 237.792969 87.5 237.304688 C 86.871094 236.867188 86.121094 236.570313 85.289063 236.414063 C 84.71875 236.289063 84.136719 236.21875 83.492188 236.21875 C 82.453125 236.21875 81.636719 236.394531 81.070313 236.707031 C 80.355469 237.066406 79.96875 237.710938 79.96875 238.578125 C 79.96875 239.769531 80.382813 241.621094 81.207031 244.003906 C 82.035156 246.394531 82.453125 248.195313 82.453125 249.371094 C 82.453125 249.851563 82.425781 250.160156 82.367188 250.363281 C 82.367188 250.527344 82.316406 250.804688 82.207031 251.136719 C 81.433594 250.804688 80.714844 249.851563 80.050781 248.136719 C 79.675781 247.1875 79.285156 245.886719 78.894531 244.285156 C 78.617188 243.285156 78.386719 241.832031 78.207031 239.929688 C 78.042969 237.984375 77.855469 236.722656 77.757813 236.097656 C 79.324219 235.675781 80.363281 235.398438 80.933594 235.277344 C 82.207031 234.996094 83.304688 234.847656 84.214844 234.847656 C 85.3125 234.847656 86.296875 235.027344 87.199219 235.398438 C 88.097656 235.734375 88.945313 236.359375 89.6875 237.226563 "/>
<path style=" stroke:none;fill-rule:nonzero;fill:rgb(13.299561%,12.199402%,12.199402%);fill-opacity:1;" d="M 93.820313 236.660156 C 93.777344 236.207031 93.679688 235.328125 93.574219 234.082031 C 93.363281 232.296875 93.285156 230.871094 93.285156 229.859375 C 93.285156 229.527344 93.214844 228.875 93.039063 227.839844 C 92.867188 226.808594 92.792969 226.039063 92.792969 225.535156 C 92.792969 225.03125 92.839844 224.664063 92.929688 224.382813 C 93.039063 224.101563 93.25 223.945313 93.550781 223.835938 C 94.28125 227.046875 94.640625 230.3125 94.640625 233.660156 C 94.75 234.960938 94.96875 236.207031 95.203125 237.433594 C 95.390625 238.390625 95.675781 239.65625 96.09375 241.171875 C 96.253906 241.808594 96.617188 243.058594 97.152344 244.832031 C 96.148438 244.566406 95.328125 243.386719 94.699219 241.339844 C 94.25 239.964844 93.988281 238.390625 93.820313 236.660156 "/>
<path style=" stroke:none;fill-rule:evenodd;fill:rgb(13.299561%,12.199402%,12.199402%);fill-opacity:1;" d="M 104.332031 236.097656 C 104.84375 235.769531 105.324219 235.339844 105.761719 234.847656 C 106.296875 234.175781 106.546875 233.574219 106.546875 233.074219 C 106.546875 232.695313 106.378906 232.320313 105.984375 232.023438 C 105.734375 231.847656 105.40625 231.742188 105.0625 231.742188 C 104.683594 231.742188 104.21875 231.847656 103.640625 232.152344 C 103.394531 232.257813 102.984375 232.484375 102.402344 232.867188 C 101.683594 233.308594 101.101563 233.898438 100.691406 234.679688 C 100.292969 235.433594 100.09375 236.21875 100.09375 237.066406 C 100.09375 237.433594 100.140625 237.714844 100.226563 238.054688 C 100.878906 237.914063 101.621094 237.652344 102.433594 237.242188 C 103.035156 236.960938 103.660156 236.570313 104.332031 236.097656 M 105.984375 230.65625 C 106.53125 230.8125 106.980469 231.125 107.351563 231.632813 C 107.765625 232.082031 107.949219 232.578125 107.949219 233.121094 L 107.949219 233.402344 C 107.714844 234.914063 106.40625 236.429688 103.980469 237.851563 C 102.917969 238.449219 101.832031 239.070313 100.738281 239.664063 C 101.429688 240.75 102.433594 241.589844 103.734375 242.066406 C 104.777344 242.476563 106.066406 242.667969 107.59375 242.667969 C 108.15625 242.667969 108.71875 242.667969 109.246094 242.621094 C 109.761719 242.578125 110.359375 242.519531 111.058594 242.433594 C 111.746094 242.355469 112.464844 242.207031 113.214844 241.988281 C 113.964844 241.773438 114.710938 241.523438 115.429688 241.308594 C 115.746094 241.214844 116.09375 241.0625 116.46875 240.859375 C 117.503906 240.289063 118.101563 239.988281 118.1875 239.964844 C 118.421875 239.964844 118.636719 239.929688 118.738281 239.894531 C 118.84375 239.863281 118.84375 239.769531 118.761719 239.664063 C 119.074219 239.601563 119.253906 239.601563 119.328125 239.601563 C 119.3125 239.617188 119.296875 239.664063 119.296875 239.664063 C 118.027344 240.507813 116.707031 241.332031 115.429688 242.113281 C 113.542969 242.832031 112.351563 243.234375 111.890625 243.398438 C 110.492188 243.8125 109.289063 244.019531 108.25 244.019531 C 105.925781 244.019531 103.8125 243.550781 101.910156 242.621094 C 99.582031 241.496094 98.425781 239.964844 98.425781 238.054688 C 98.425781 237.664063 98.46875 237.285156 98.535156 236.933594 C 98.933594 235.183594 99.710938 233.78125 100.851563 232.695313 C 101.933594 231.691406 103.367188 230.898438 105.164063 230.359375 L 105.324219 230.359375 C 105.519531 230.472656 105.785156 230.566406 105.984375 230.65625 "/>
<path style=" stroke:none;fill-rule:nonzero;fill:rgb(13.299561%,12.199402%,12.199402%);fill-opacity:1;" d="M 154.46875 218.652344 C 154.980469 219.585938 155.382813 220.703125 155.699219 222.050781 C 155.828125 222.515625 156.136719 224.5625 156.671875 228.203125 C 156.785156 229.011719 156.960938 229.980469 157.226563 231.050781 C 157.90625 233.953125 158.273438 235.621094 158.34375 236.082031 C 158.429688 236.453125 158.589844 237.066406 158.914063 237.898438 C 159.554688 239.722656 159.914063 240.859375 160.003906 241.308594 C 158.464844 240.949219 157.300781 239.164063 156.546875 235.886719 C 156.484375 235.769531 156.269531 234.472656 155.828125 232.023438 C 155.542969 230.199219 155.242188 228.347656 154.949219 226.523438 C 154.613281 224.425781 154.164063 222.625 153.613281 221.121094 C 152.640625 221.726563 151.820313 222.933594 151.097656 224.804688 C 150.546875 226.28125 149.996094 227.773438 149.464844 229.285156 C 148.851563 230.636719 148.238281 231.796875 147.585938 232.761719 C 146.574219 234.300781 145.617188 235.234375 144.773438 235.605469 C 144.570313 235.652344 144.367188 235.734375 144.066406 235.769531 C 143.824219 235.875 143.574219 235.886719 143.4375 235.886719 C 141.992188 235.886719 140.484375 234.746094 138.953125 232.484375 C 138.269531 231.550781 137.628906 230.566406 137.007813 229.546875 C 136.855469 229.933594 136.714844 230.3125 136.65625 230.796875 C 136.5625 231.226563 136.5625 231.664063 136.5625 232.082031 C 136.5625 233.121094 136.855469 234.714844 137.410156 236.898438 C 137.957031 239.0625 138.269531 240.65625 138.269531 241.652344 C 138.269531 242.1875 138.210938 242.683594 138.089844 243.234375 C 137.285156 243.058594 136.714844 242.476563 136.445313 241.523438 C 136.257813 240.933594 136.152344 240.019531 136.152344 238.84375 C 136.121094 238.375 136.035156 237.597656 135.871094 236.453125 C 135.726563 235.382813 135.628906 234.636719 135.613281 234.207031 C 135.613281 233.550781 135.476563 231.847656 135.242188 229.113281 C 135.109375 227.839844 135.066406 226.808594 135.066406 226.007813 C 135.066406 225.535156 134.984375 224.964844 134.816406 224.324219 C 134.433594 222.90625 134.261719 222.070313 134.261719 221.808594 C 134.261719 221.425781 134.351563 221.007813 134.492188 220.582031 C 135.109375 220.800781 135.53125 221.035156 135.722656 221.289063 C 135.921875 221.539063 136.066406 222.132813 136.199219 223.019531 C 136.316406 223.957031 136.480469 224.683594 136.621094 225.277344 C 136.855469 226.117188 137.160156 226.878906 137.5625 227.652344 C 138.425781 229.285156 139.273438 230.65625 140.121094 231.691406 C 141.371094 233.222656 142.542969 233.992188 143.632813 233.992188 C 144.097656 233.992188 144.570313 233.832031 145.027344 233.550781 C 145.496094 233.222656 145.964844 232.734375 146.398438 232.023438 C 147.542969 230.242188 148.253906 229.019531 148.609375 228.441406 C 149.386719 227.050781 149.960938 225.820313 150.257813 224.734375 C 150.574219 223.617188 151.097656 222.5 151.800781 221.425781 C 152.433594 220.269531 153.179688 219.367188 153.910156 218.652344 "/>
<path style=" stroke:none;fill-rule:nonzero;fill:rgb(13.299561%,12.199402%,12.199402%);fill-opacity:1;" d="M 169.390625 230.65625 C 169.84375 230.9375 170.175781 231.304688 170.378906 231.691406 C 170.609375 232.09375 170.683594 232.53125 170.683594 232.996094 C 170.683594 233.574219 170.550781 234.054688 170.222656 234.496094 C 170.222656 233.449219 170.0625 232.695313 169.660156 232.222656 C 169.347656 231.757813 168.855469 231.492188 168.226563 231.492188 C 167.265625 231.492188 166.175781 232.023438 165.003906 233.03125 C 163.828125 234.015625 163.085938 235.0625 162.769531 236.097656 C 162.570313 236.785156 162.355469 237.433594 162.195313 238.105469 C 161.933594 239.070313 161.808594 239.863281 161.808594 240.46875 C 161.808594 241.214844 161.945313 241.804688 162.242188 242.207031 C 162.570313 242.660156 163.085938 242.886719 163.863281 242.964844 C 163.964844 242.996094 164.132813 243.015625 164.355469 243.015625 C 165.632813 243.015625 166.875 242.519531 168.054688 241.523438 C 169.011719 240.550781 169.953125 239.570313 170.902344 238.578125 C 172.023438 237.433594 173.121094 236.707031 174.09375 236.414063 C 174.210938 236.722656 174.371094 237.347656 174.558594 238.257813 C 174.832031 239.769531 175.269531 240.796875 175.765625 241.308594 C 176.109375 241.652344 176.464844 241.863281 176.871094 242.019531 C 177.3125 242.1875 177.773438 242.207031 178.277344 242.207031 C 178.621094 242.207031 179.042969 242.1875 179.621094 242.101563 C 180.820313 241.953125 181.5625 241.863281 181.789063 241.863281 L 182.15625 241.863281 C 181.339844 242.253906 180.550781 242.671875 179.742188 243.058594 C 178.882813 243.40625 178.097656 243.605469 177.371094 243.605469 C 177.046875 243.605469 176.710938 243.550781 176.339844 243.511719 C 175.453125 243.339844 174.773438 242.945313 174.226563 242.332031 C 174.117188 242.195313 173.519531 241.035156 172.457031 238.84375 C 171.660156 239.65625 170.828125 240.417969 170.035156 241.214844 C 169.078125 242.113281 168.226563 242.777344 167.460938 243.234375 C 166.933594 243.550781 166.308594 243.8125 165.632813 244.019531 C 164.992188 244.253906 164.324219 244.34375 163.703125 244.34375 L 163.34375 244.34375 C 163.230469 244.304688 163.085938 244.285156 163.003906 244.285156 C 162.109375 244.164063 161.484375 243.792969 161.160156 243.140625 C 160.90625 242.671875 160.769531 241.863281 160.769531 240.75 C 160.769531 238.472656 161.484375 236.359375 162.8125 234.382813 C 164.175781 232.390625 165.890625 230.972656 168.035156 230.117188 C 168.226563 230.199219 168.433594 230.242188 168.628906 230.246094 C 168.980469 230.417969 169.230469 230.566406 169.390625 230.65625 "/>
<path style=" stroke:none;fill-rule:nonzero;fill:rgb(13.299561%,12.199402%,12.199402%);fill-opacity:1;" d="M 189.050781 225.183594 L 189.050781 222.722656 C 189.050781 222.40625 189.113281 222.183594 189.203125 222.070313 C 189.316406 221.917969 189.464844 221.875 189.675781 221.875 C 190 221.917969 190.285156 221.917969 190.46875 221.917969 C 190.46875 223.710938 190.515625 225.21875 190.617188 226.425781 C 190.71875 227.609375 190.964844 228.914063 191.289063 230.359375 C 192.902344 230.199219 194.335938 229.859375 195.535156 229.382813 C 196.894531 228.847656 198.03125 228.105469 199.019531 227.117188 C 199.019531 228.238281 198.617188 229.054688 197.777344 229.601563 C 197.226563 229.992188 196.269531 230.3125 194.90625 230.65625 C 193.804688 230.917969 193.042969 231.304688 192.671875 231.742188 C 192.308594 232.179688 192.113281 232.890625 192.113281 233.953125 C 192.226563 235.234375 192.496094 236.609375 192.902344 237.984375 C 193.265625 239.164063 193.757813 240.410156 194.335938 241.773438 C 194.835938 242.738281 195.460938 243.953125 196.25 245.398438 C 194.464844 244.980469 193.160156 243.519531 192.273438 241.015625 C 191.878906 239.878906 191.445313 237.792969 191 234.746094 C 190.886719 233.78125 190.53125 233.109375 190.046875 232.695313 C 189.652344 232.320313 189.019531 232.152344 188.234375 232.152344 C 187.777344 232.152344 187.125 232.222656 186.300781 232.390625 C 184.488281 232.761719 183.378906 232.933594 182.945313 232.933594 C 182.4375 232.933594 181.960938 232.867188 181.566406 232.695313 C 181.144531 232.515625 180.789063 232.179688 180.507813 231.757813 C 180.988281 231.507813 181.441406 231.390625 181.945313 231.304688 C 182.4375 231.25 183.015625 231.21875 183.761719 231.21875 L 184.652344 231.21875 C 185.519531 231.21875 186.355469 231.125 187.1875 231.015625 C 188.070313 230.871094 188.988281 230.65625 189.917969 230.359375 C 189.675781 229.230469 189.464844 228.359375 189.371094 227.808594 C 189.199219 226.777344 189.050781 225.894531 189.050781 225.183594 "/>
<path style=" stroke:none;fill-rule:nonzero;fill:rgb(13.299561%,12.199402%,12.199402%);fill-opacity:1;" d="M 201.539063 232.296875 C 201.867188 235.167969 202.09375 236.867188 202.214844 237.457031 C 202.683594 239.503906 203.472656 241 204.566406 241.863281 C 205.199219 240.207031 205.496094 239.296875 205.585938 239.164063 C 206.074219 238.195313 206.738281 237.542969 207.617188 237.226563 C 208.164063 237.019531 208.644531 236.898438 209.101563 236.898438 C 209.757813 236.898438 210.402344 237.226563 211.089844 237.851563 C 211.261719 238.03125 211.664063 238.433594 212.367188 239.117188 C 213.726563 240.546875 214.890625 241.589844 215.824219 242.101563 C 216.640625 242.574219 217.503906 242.832031 218.429688 242.964844 C 218.429688 243.015625 218.429688 243.058594 218.445313 243.089844 C 218.664063 243.238281 218.742188 243.386719 218.6875 243.511719 C 218.664063 243.699219 218.507813 243.863281 218.324219 243.953125 C 218.164063 244.019531 217.914063 244.078125 217.617188 244.078125 C 217.296875 244.078125 216.964844 244.019531 216.609375 243.953125 C 216.242188 243.863281 216.007813 243.808594 215.929688 243.777344 C 215.230469 243.550781 214.511719 243.140625 213.796875 242.601563 C 213.304688 242.207031 212.367188 241.222656 210.960938 239.664063 C 210.605469 239.277344 210.226563 238.960938 209.863281 238.785156 C 209.515625 238.542969 209.15625 238.433594 208.871094 238.433594 C 208.199219 238.433594 207.589844 238.878906 207.066406 239.757813 C 206.65625 240.40625 206.28125 241.308594 205.96875 242.410156 C 205.816406 242.886719 205.625 243.273438 205.367188 243.550781 C 205.144531 243.753906 204.871094 243.90625 204.597656 243.90625 C 204.195313 243.90625 203.789063 243.699219 203.34375 243.339844 C 202.949219 242.886719 202.621094 242.433594 202.363281 241.863281 C 201.644531 240.289063 201.113281 238.609375 200.726563 236.8125 C 200.324219 235.027344 200.164063 233.25 200.164063 231.484375 C 200.164063 230.972656 200.085938 230.359375 199.992188 229.667969 C 199.78125 228.082031 199.679688 227.070313 199.679688 226.695313 C 199.679688 225.769531 199.828125 225.011719 200.164063 224.382813 C 200.726563 225.253906 201.074219 226.535156 201.25 228.203125 C 201.3125 229.542969 201.425781 230.9375 201.539063 232.296875 "/>
<path style=" stroke:none;fill-rule:nonzero;fill:rgb(13.299561%,12.199402%,12.199402%);fill-opacity:1;" d="M 26.222656 210.691406 L 231.761719 210.691406 L 231.761719 210.203125 L 26.222656 210.203125 Z M 26.222656 210.691406 "/>
<path style=" stroke:none;fill-rule:nonzero;fill:rgb(13.299561%,12.199402%,12.199402%);fill-opacity:1;" d="M 225.769531 222.605469 C 225.441406 222.34375 224.957031 222.207031 224.328125 222.207031 L 222.996094 222.207031 L 222.996094 225.488281 L 224.167969 225.488281 C 224.816406 225.488281 225.328125 225.339844 225.703125 225.0625 C 226.085938 224.777344 226.273438 224.359375 226.273438 223.832031 C 226.273438 223.292969 226.09375 222.90625 225.769531 222.605469 M 227.832031 229.898438 L 226.9375 230.085938 L 224.136719 226.210938 L 222.996094 226.210938 L 222.996094 229.992188 L 222.125 229.992188 L 222.125 221.425781 L 224.347656 221.425781 C 225.207031 221.425781 225.886719 221.625 226.410156 222.039063 C 226.886719 222.445313 227.140625 223.007813 227.140625 223.757813 C 227.140625 224.097656 227.085938 224.382813 226.972656 224.636719 C 226.871094 224.917969 226.726563 225.136719 226.554688 225.332031 C 226.378906 225.515625 226.152344 225.6875 225.910156 225.820313 C 225.664063 225.945313 225.367188 226.042969 225.078125 226.101563 "/>
<path style=" stroke:none;fill-rule:nonzero;fill:rgb(13.299561%,12.199402%,12.199402%);fill-opacity:1;" d="M 224.421875 219.414063 C 220.808594 219.414063 217.859375 222.328125 217.859375 225.882813 C 217.859375 229.460938 220.808594 232.371094 224.421875 232.371094 C 228.039063 232.371094 230.972656 229.460938 230.972656 225.882813 C 230.972656 222.328125 228.039063 219.414063 224.421875 219.414063 M 224.421875 233.136719 C 220.378906 233.136719 217.078125 229.886719 217.078125 225.882813 C 217.078125 221.898438 220.378906 218.652344 224.421875 218.652344 C 228.476563 218.652344 231.761719 221.898438 231.761719 225.882813 C 231.761719 229.886719 228.476563 233.136719 224.421875 233.136719 "/>
<path style=" stroke:none;fill-rule:nonzero;fill:rgb(0%,35.299683%,66.299438%);fill-opacity:1;" d="M 40.785156 183.847656 L 41.136719 189.910156 L 40.125 189.957031 C 39.78125 187.839844 39.234375 186.484375 38.445313 185.847656 C 37.675781 185.234375 36.371094 184.933594 34.492188 184.933594 C 33.117188 184.933594 32.28125 184.976563 31.953125 185.058594 C 31.652344 185.164063 31.535156 185.453125 31.535156 185.988281 L 31.535156 191.574219 C 31.730469 191.609375 31.867188 191.609375 31.914063 191.609375 L 32.144531 191.609375 C 33.5 191.609375 34.4375 191.296875 34.941406 190.578125 C 35.253906 190.171875 35.460938 189.433594 35.589844 188.328125 L 36.699219 188.328125 L 36.699219 196.140625 L 35.589844 196.140625 L 35.589844 195.652344 C 35.511719 194.378906 35.097656 193.511719 34.324219 193.054688 C 33.890625 192.808594 33.214844 192.667969 32.34375 192.660156 L 31.535156 192.660156 L 31.535156 198.761719 L 31.550781 199.203125 C 31.5625 199.484375 31.699219 199.648438 31.894531 199.742188 C 32.097656 199.800781 32.40625 199.824219 32.84375 199.863281 C 32.953125 199.871094 33.167969 199.871094 33.53125 199.871094 C 33.953125 199.898438 34.296875 199.898438 34.578125 199.898438 C 36.453125 199.898438 37.769531 199.617188 38.589844 199.035156 C 39.402344 198.484375 40.050781 197.097656 40.457031 194.886719 L 40.542969 194.660156 L 41.527344 194.722656 L 41.042969 201.027344 L 26.222656 201.027344 L 26.222656 200.019531 L 27.675781 199.925781 C 28.226563 199.925781 28.605469 199.757813 28.726563 199.523438 C 28.839844 199.339844 28.890625 199.011719 28.890625 198.484375 L 28.890625 186.335938 C 28.890625 185.621094 28.796875 185.214844 28.585938 185.089844 C 28.335938 184.976563 27.59375 184.890625 26.277344 184.863281 L 26.277344 183.847656 "/>
<path style=" stroke:none;fill-rule:evenodd;fill:rgb(0%,35.299683%,66.299438%);fill-opacity:1;" d="M 46.8125 195.355469 C 47.847656 194.933594 49.464844 194.539063 51.605469 194.207031 C 51.605469 194.066406 51.636719 194 51.636719 193.90625 C 51.664063 193.859375 51.664063 193.734375 51.664063 193.597656 C 51.664063 192.550781 51.464844 191.792969 51.148438 191.421875 C 50.765625 190.90625 50.019531 190.640625 48.972656 190.640625 C 48.488281 190.640625 47.988281 190.730469 47.488281 190.925781 C 47.027344 191.105469 46.765625 191.296875 46.765625 191.5625 C 46.765625 191.609375 46.875 191.757813 47.042969 192.066406 C 47.203125 192.382813 47.292969 192.660156 47.292969 192.921875 C 47.292969 193.25 47.175781 193.527344 46.960938 193.734375 C 46.734375 193.90625 46.398438 194.019531 46.019531 194.019531 C 45.625 194.019531 45.273438 193.90625 45.011719 193.621094 C 44.78125 193.355469 44.660156 192.996094 44.660156 192.566406 C 44.660156 191.757813 45.097656 191.105469 45.976563 190.523438 C 46.875 189.945313 47.988281 189.648438 49.289063 189.648438 C 51.242188 189.648438 52.585938 190.101563 53.265625 191.03125 C 53.640625 191.5625 53.84375 192.273438 53.84375 193.25 L 53.84375 193.839844 L 53.742188 197.429688 L 53.742188 197.914063 C 53.742188 198.496094 53.777344 198.9375 53.882813 199.175781 C 54.027344 199.617188 54.304688 199.820313 54.757813 199.820313 C 54.902344 199.820313 55.085938 199.800781 55.316406 199.695313 C 55.503906 199.601563 55.65625 199.570313 55.738281 199.570313 C 55.828125 199.570313 55.875 199.582031 55.914063 199.648438 C 55.984375 199.695313 56.015625 199.757813 56.015625 199.875 C 56.015625 200.136719 55.828125 200.414063 55.40625 200.746094 C 54.996094 201.074219 54.472656 201.253906 53.890625 201.253906 C 53.171875 201.253906 52.660156 201.039063 52.28125 200.601563 C 52.082031 200.347656 51.898438 199.976563 51.722656 199.460938 C 51.21875 200.101563 50.539063 200.601563 49.773438 200.921875 C 49.007813 201.199219 48.25 201.359375 47.484375 201.359375 C 46.429688 201.359375 45.601563 201.121094 44.953125 200.65625 C 44.324219 200.164063 44.003906 199.460938 44.003906 198.496094 C 44.003906 197.203125 44.949219 196.113281 46.8125 195.355469 M 50.050781 199.675781 C 51.054688 199.128906 51.554688 198.21875 51.582031 196.96875 L 51.605469 195.558594 L 51.605469 195.152344 C 50.003906 195.324219 48.726563 195.667969 47.78125 196.140625 C 46.851563 196.628906 46.351563 197.304688 46.351563 198.234375 C 46.351563 198.761719 46.574219 199.203125 46.875 199.601563 C 47.238281 199.992188 47.71875 200.164063 48.316406 200.164063 C 48.914063 200.164063 49.484375 200.019531 50.050781 199.675781 "/>
<path style=" stroke:none;fill-rule:nonzero;fill:rgb(0%,35.299683%,66.299438%);fill-opacity:1;" d="M 58.671875 190.574219 C 59.3125 189.910156 60.167969 189.601563 61.304688 189.601563 C 62.011719 189.601563 62.632813 189.746094 63.199219 189.957031 C 63.488281 190.078125 63.859375 190.300781 64.222656 190.609375 L 64.957031 189.722656 L 65.734375 189.722656 L 65.734375 193.699219 L 64.863281 193.699219 C 64.597656 192.890625 64.269531 192.207031 63.929688 191.761719 C 63.269531 190.980469 62.410156 190.578125 61.304688 190.578125 C 60.625 190.578125 60.078125 190.730469 59.667969 191.0625 C 59.300781 191.367188 59.109375 191.761719 59.109375 192.273438 C 59.109375 192.839844 59.339844 193.28125 59.835938 193.5625 C 60.136719 193.734375 60.625 193.894531 61.304688 194.019531 L 63.3125 194.425781 C 64.414063 194.667969 65.214844 195.066406 65.734375 195.558594 C 66.261719 196.109375 66.492188 196.851563 66.492188 197.882813 C 66.492188 198.980469 66.128906 199.820313 65.3125 200.449219 C 64.539063 201.074219 63.605469 201.359375 62.496094 201.359375 C 61.8125 201.359375 61.222656 201.253906 60.683594 201.039063 C 60.140625 200.820313 59.667969 200.527344 59.226563 200.210938 L 58.390625 201.253906 L 57.597656 201.253906 L 57.597656 196.726563 L 58.5 196.726563 C 58.726563 197.652344 59.109375 198.382813 59.492188 198.9375 C 60.234375 199.925781 61.304688 200.414063 62.632813 200.414063 C 63.386719 200.414063 63.988281 200.210938 64.414063 199.820313 C 64.855469 199.484375 65.066406 199.035156 65.066406 198.5625 C 65.066406 197.914063 64.816406 197.476563 64.335938 197.210938 C 63.867188 196.96875 62.84375 196.675781 61.339844 196.316406 C 60.042969 196.011719 59.128906 195.652344 58.554688 195.179688 C 58.03125 194.722656 57.75 194 57.75 192.925781 C 57.75 191.960938 58.050781 191.171875 58.671875 190.574219 "/>
<path style=" stroke:none;fill-rule:nonzero;fill:rgb(0%,35.299683%,66.299438%);fill-opacity:1;" d="M 67.898438 189.984375 L 68.15625 189.957031 C 69.316406 189.882813 70.148438 189.171875 70.648438 187.839844 C 70.953125 187.058594 71.125 186.160156 71.171875 185.140625 L 72.160156 185.140625 L 72.160156 189.984375 L 75.746094 189.984375 L 75.746094 190.953125 L 72.160156 190.953125 L 72.160156 197.945313 C 72.160156 198.390625 72.21875 198.78125 72.347656 199.097656 C 72.570313 199.648438 73.011719 199.925781 73.640625 199.925781 C 74.390625 199.925781 74.894531 199.5 75.242188 198.65625 C 75.398438 198.21875 75.511719 197.554688 75.566406 196.703125 L 76.535156 196.703125 C 76.515625 197.882813 76.335938 198.78125 76.039063 199.484375 C 75.433594 200.726563 74.390625 201.324219 72.824219 201.324219 C 71.582031 201.324219 70.769531 200.925781 70.273438 200.027344 C 70.066406 199.582031 69.945313 198.9375 69.945313 198.15625 L 69.945313 191.03125 L 67.898438 191.03125 "/>
<path style=" stroke:none;fill-rule:evenodd;fill:rgb(0%,35.299683%,66.299438%);fill-opacity:1;" d="M 79.277344 191.390625 C 80.300781 190.195313 81.601563 189.601563 83.160156 189.601563 C 84.6875 189.601563 85.882813 190.183594 86.695313 191.296875 C 87.578125 192.464844 88.078125 193.894531 88.132813 195.652344 L 80.234375 195.652344 C 80.234375 196.710938 80.382813 197.585938 80.726563 198.296875 C 81.300781 199.539063 82.316406 200.136719 83.789063 200.136719 C 84.714844 200.136719 85.46875 199.863281 86.082031 199.292969 C 86.46875 198.96875 86.84375 198.390625 87.339844 197.585938 L 88.144531 198.039063 C 87.675781 199.097656 87.042969 199.925781 86.273438 200.507813 C 85.46875 201.074219 84.460938 201.359375 83.21875 201.359375 C 81.691406 201.359375 80.417969 200.859375 79.34375 199.871094 C 78.289063 198.871094 77.753906 197.429688 77.753906 195.539063 C 77.753906 193.90625 78.242188 192.566406 79.277344 191.390625 M 85.410156 194.539063 C 85.550781 194.425781 85.617188 194.160156 85.617188 193.734375 C 85.617188 193.140625 85.5 192.621094 85.289063 192.066406 C 84.886719 191.105469 84.136719 190.578125 83.109375 190.578125 C 81.96875 190.578125 81.148438 191.25 80.679688 192.648438 C 80.417969 193.355469 80.300781 194.019531 80.300781 194.667969 L 84.644531 194.667969 C 85.039063 194.660156 85.324219 194.613281 85.410156 194.539063 "/>
<path style=" stroke:none;fill-rule:nonzero;fill:rgb(0%,35.299683%,66.299438%);fill-opacity:1;" d="M 89.460938 190.925781 L 89.460938 189.988281 L 93.699219 189.746094 L 93.699219 193.4375 C 94.046875 192.410156 94.417969 191.640625 94.824219 191.15625 C 95.511719 190.195313 96.417969 189.746094 97.503906 189.746094 C 98.113281 189.746094 98.566406 189.910156 98.917969 190.257813 C 99.261719 190.632813 99.4375 191.0625 99.4375 191.609375 C 99.4375 192.035156 99.308594 192.382813 99.089844 192.667969 C 98.851563 192.996094 98.5 193.167969 98 193.167969 C 97.652344 193.167969 97.355469 193.054688 97.121094 192.808594 C 96.851563 192.597656 96.742188 192.285156 96.742188 191.894531 C 96.742188 191.628906 96.769531 191.421875 96.851563 191.242188 C 96.96875 191.113281 97.085938 190.925781 97.265625 190.75 C 96.125 190.925781 95.3125 191.757813 94.664063 193.214844 C 94.082031 194.660156 93.785156 196.34375 93.785156 198.261719 C 93.785156 199.035156 93.832031 199.539063 93.917969 199.742188 C 93.992188 199.925781 94.28125 200.042969 94.726563 200.042969 L 96.125 200.066406 L 96.125 201.027344 L 89.652344 201.027344 L 89.652344 200.066406 L 89.984375 200.066406 C 90.097656 200.042969 90.171875 200.042969 90.269531 200.042969 L 90.695313 200.042969 C 91.101563 200.042969 91.386719 199.992188 91.503906 199.824219 C 91.621094 199.695313 91.6875 199.394531 91.6875 198.96875 L 91.6875 193.25 L 91.667969 192.441406 C 91.621094 191.894531 91.558594 191.492188 91.445313 191.296875 C 91.320313 191.105469 91.058594 190.953125 90.601563 190.925781 "/>
<path style=" stroke:none;fill-rule:nonzero;fill:rgb(0%,35.299683%,66.299438%);fill-opacity:1;" d="M 100.34375 200.066406 L 101.414063 200.046875 C 101.789063 200.046875 102.007813 199.992188 102.132813 199.898438 C 102.269531 199.800781 102.339844 199.570313 102.339844 199.203125 L 102.339844 192.207031 C 102.339844 191.609375 102.242188 191.214844 102.007813 191.105469 C 101.789063 190.953125 101.144531 190.90625 100.140625 190.925781 L 100.140625 189.984375 L 104.445313 189.746094 L 104.445313 192.066406 C 104.914063 191.421875 105.324219 190.90625 105.734375 190.578125 C 106.425781 190.023438 107.3125 189.746094 108.304688 189.746094 C 109.546875 189.746094 110.464844 190.101563 111.097656 190.863281 C 111.71875 191.628906 112.007813 192.667969 112.007813 194.019531 L 112.007813 199.265625 C 112.007813 199.570313 112.066406 199.757813 112.175781 199.871094 C 112.253906 199.992188 112.507813 200.046875 112.894531 200.046875 L 113.9375 200.066406 L 113.9375 201.027344 L 107.859375 201.027344 L 107.859375 200.066406 C 108.769531 200.066406 109.324219 200.019531 109.503906 199.960938 C 109.699219 199.871094 109.8125 199.648438 109.8125 199.234375 L 109.8125 194.019531 C 109.8125 193.140625 109.636719 192.464844 109.296875 191.960938 C 108.976563 191.460938 108.363281 191.203125 107.546875 191.203125 C 107.011719 191.203125 106.464844 191.34375 105.96875 191.679688 C 105.007813 192.347656 104.519531 193.527344 104.519531 195.199219 L 104.519531 199.175781 C 104.519531 199.542969 104.550781 199.757813 104.679688 199.871094 C 104.777344 199.992188 105.039063 200.046875 105.386719 200.046875 L 106.464844 200.066406 L 106.464844 201.027344 L 100.34375 201.027344 "/>
<path style=" stroke:none;fill-rule:evenodd;fill:rgb(0%,35.299683%,66.299438%);fill-opacity:1;" d="M 132.199219 191.113281 C 133.144531 190.703125 133.636719 189.777344 133.636719 188.347656 C 133.636719 186.847656 133.117188 185.847656 132.160156 185.367188 C 131.542969 185.042969 130.480469 184.890625 129.03125 184.890625 C 128.21875 184.890625 127.722656 184.976563 127.476563 185.140625 C 127.242188 185.261719 127.113281 185.652344 127.113281 186.160156 L 127.113281 191.609375 C 129.5625 191.679688 131.253906 191.5625 132.199219 191.113281 M 121.808594 200.019531 C 123.164063 199.960938 123.949219 199.871094 124.15625 199.742188 C 124.390625 199.617188 124.484375 199.203125 124.484375 198.496094 L 124.484375 185.878906 L 124.457031 185.558594 C 124.441406 185.320313 124.300781 185.140625 124.074219 185.042969 C 123.828125 184.976563 123.539063 184.949219 123.164063 184.933594 L 121.808594 184.859375 L 121.808594 183.847656 L 130.824219 183.847656 C 132.785156 183.847656 134.183594 184.269531 135.050781 185.105469 C 135.949219 185.988281 136.363281 186.902344 136.363281 187.988281 C 136.363281 189.445313 135.785156 190.523438 134.574219 191.222656 C 133.953125 191.609375 133.117188 191.894531 132.105469 192.046875 C 133.3125 192.195313 134.292969 192.464844 135.078125 192.890625 C 136.515625 193.621094 137.253906 194.789063 137.253906 196.34375 C 137.253906 198.34375 136.238281 199.695313 134.195313 200.414063 C 133.117188 200.820313 131.578125 201.027344 129.613281 201.027344 L 121.808594 201.027344 Z M 128.171875 192.667969 C 127.722656 192.726563 127.390625 192.726563 127.113281 192.726563 L 127.113281 198.5625 C 127.113281 199.234375 127.242188 199.617188 127.445313 199.761719 C 127.675781 199.871094 128.273438 199.925781 129.246094 199.925781 C 131.253906 199.925781 132.59375 199.675781 133.300781 199.128906 C 134.007813 198.601563 134.339844 197.632813 134.339844 196.1875 C 134.339844 194.683594 133.757813 193.699219 132.59375 193.167969 C 131.839844 192.839844 130.664063 192.660156 129.0625 192.660156 C 128.90625 192.660156 128.589844 192.667969 128.171875 192.667969 "/>
<path style=" stroke:none;fill-rule:evenodd;fill:rgb(0%,35.299683%,66.299438%);fill-opacity:1;" d="M 142.390625 195.355469 C 143.421875 194.933594 145.027344 194.539063 147.1875 194.207031 C 147.214844 194.066406 147.214844 194 147.214844 193.90625 L 147.214844 193.597656 C 147.214844 192.550781 147.046875 191.792969 146.726563 191.421875 C 146.335938 190.90625 145.597656 190.640625 144.546875 190.640625 C 144.066406 190.640625 143.5625 190.730469 143.035156 190.925781 C 142.566406 191.105469 142.296875 191.296875 142.296875 191.5625 C 142.296875 191.609375 142.414063 191.757813 142.613281 192.066406 C 142.765625 192.382813 142.847656 192.660156 142.847656 192.921875 C 142.847656 193.25 142.761719 193.527344 142.511719 193.734375 C 142.289063 193.90625 141.96875 194.019531 141.578125 194.019531 C 141.171875 194.019531 140.816406 193.90625 140.589844 193.621094 C 140.332031 193.355469 140.238281 192.996094 140.238281 192.566406 C 140.238281 191.757813 140.648438 191.105469 141.558594 190.523438 C 142.460938 189.945313 143.539063 189.648438 144.851563 189.648438 C 146.789063 189.648438 148.128906 190.101563 148.816406 191.03125 C 149.210938 191.5625 149.421875 192.273438 149.421875 193.25 L 149.421875 193.839844 L 149.3125 197.429688 L 149.3125 197.914063 C 149.3125 198.496094 149.367188 198.9375 149.433594 199.175781 C 149.574219 199.617188 149.84375 199.820313 150.3125 199.820313 C 150.46875 199.820313 150.628906 199.800781 150.871094 199.695313 C 151.066406 199.601563 151.203125 199.570313 151.300781 199.570313 C 151.394531 199.570313 151.453125 199.582031 151.492188 199.648438 C 151.566406 199.695313 151.601563 199.757813 151.601563 199.875 C 151.601563 200.136719 151.394531 200.414063 150.96875 200.746094 C 150.546875 201.074219 150.039063 201.253906 149.464844 201.253906 C 148.738281 201.253906 148.222656 201.039063 147.855469 200.601563 C 147.65625 200.347656 147.460938 199.976563 147.292969 199.460938 C 146.773438 200.101563 146.121094 200.601563 145.339844 200.921875 C 144.578125 201.199219 143.804688 201.359375 143.03125 201.359375 C 141.96875 201.359375 141.128906 201.121094 140.503906 200.65625 C 139.871094 200.164063 139.585938 199.460938 139.585938 198.496094 C 139.585938 197.203125 140.503906 196.113281 142.390625 195.355469 M 145.632813 199.675781 C 146.605469 199.128906 147.101563 198.21875 147.160156 196.96875 L 147.1875 195.558594 L 147.1875 195.152344 C 145.589844 195.324219 144.292969 195.667969 143.351563 196.140625 C 142.402344 196.628906 141.964844 197.304688 141.964844 198.234375 C 141.964844 198.761719 142.125 199.203125 142.460938 199.601563 C 142.824219 199.992188 143.269531 200.164063 143.863281 200.164063 C 144.460938 200.164063 145.027344 200.019531 145.632813 199.675781 "/>
<path style=" stroke:none;fill-rule:nonzero;fill:rgb(0%,35.299683%,66.299438%);fill-opacity:1;" d="M 152.621094 200.066406 L 153.675781 200.046875 C 154.03125 200.046875 154.269531 199.992188 154.390625 199.898438 C 154.539063 199.800781 154.582031 199.570313 154.582031 199.203125 L 154.582031 192.207031 C 154.582031 191.609375 154.492188 191.214844 154.269531 191.105469 C 154.03125 190.953125 153.40625 190.90625 152.433594 190.925781 L 152.433594 189.984375 L 156.71875 189.746094 L 156.71875 192.066406 C 157.160156 191.421875 157.574219 190.90625 157.96875 190.578125 C 158.71875 190.023438 159.550781 189.746094 160.558594 189.746094 C 161.808594 189.746094 162.722656 190.101563 163.359375 190.863281 C 163.964844 191.628906 164.28125 192.667969 164.28125 194.019531 L 164.28125 199.265625 C 164.28125 199.570313 164.332031 199.757813 164.441406 199.871094 C 164.53125 199.992188 164.777344 200.046875 165.148438 200.046875 L 166.230469 200.066406 L 166.230469 201.027344 L 160.121094 201.027344 L 160.121094 200.066406 C 161.019531 200.066406 161.523438 200.019531 161.78125 199.960938 C 161.988281 199.871094 162.070313 199.648438 162.070313 199.234375 L 162.070313 194.019531 C 162.070313 193.140625 161.898438 192.464844 161.523438 191.960938 C 161.222656 191.460938 160.640625 191.203125 159.832031 191.203125 C 159.25 191.203125 158.75 191.34375 158.25 191.679688 C 157.261719 192.347656 156.773438 193.527344 156.773438 195.199219 L 156.773438 199.175781 C 156.773438 199.542969 156.820313 199.757813 156.941406 199.871094 C 157.035156 199.992188 157.304688 200.046875 157.664063 200.046875 L 158.71875 200.066406 L 158.71875 201.027344 L 152.621094 201.027344 "/>
<path style=" stroke:none;fill-rule:nonzero;fill:rgb(0%,35.299683%,66.299438%);fill-opacity:1;" d="M 167.003906 184.703125 L 167.003906 183.710938 L 171.363281 183.492188 L 171.363281 195.386719 L 174.972656 192.042969 C 175.097656 191.910156 175.207031 191.789063 175.28125 191.703125 C 175.335938 191.628906 175.359375 191.5625 175.359375 191.421875 C 175.359375 191.328125 175.328125 191.242188 175.234375 191.15625 C 175.148438 191.0625 174.972656 190.980469 174.660156 190.953125 L 173.371094 190.929688 L 173.371094 189.984375 L 179.691406 189.984375 L 179.691406 190.929688 C 178.917969 190.980469 178.300781 191.15625 177.796875 191.34375 C 177.289063 191.5625 176.75 191.910156 176.210938 192.441406 L 174.484375 193.90625 L 177.785156 198.296875 C 178.195313 198.871094 178.566406 199.292969 178.902344 199.539063 C 179.464844 199.925781 180.058594 200.101563 180.796875 200.066406 L 180.796875 201.027344 L 174.433594 201.027344 L 174.433594 200.066406 L 175.234375 200.042969 C 175.5625 200.027344 175.800781 200.019531 175.878906 199.976563 C 175.972656 199.925781 176.019531 199.820313 176.019531 199.742188 C 176.019531 199.648438 176.019531 199.601563 175.972656 199.523438 C 175.933594 199.433594 175.859375 199.292969 175.699219 199.078125 L 172.902344 195.277344 L 171.363281 196.675781 L 171.363281 199.097656 C 171.363281 199.484375 171.417969 199.742188 171.53125 199.863281 C 171.632813 199.992188 171.863281 200.042969 172.191406 200.042969 L 173.199219 200.066406 L 173.199219 201.027344 L 167.253906 201.027344 L 167.253906 200.066406 L 168.257813 200.042969 C 168.6875 200.042969 168.9375 199.992188 169.042969 199.863281 C 169.15625 199.742188 169.191406 199.484375 169.191406 199.097656 L 169.191406 185.824219 C 169.191406 185.367188 169.097656 185.058594 168.875 184.949219 C 168.714844 184.824219 168.292969 184.761719 167.6875 184.726563 "/>
<path style=" stroke:none;fill-rule:nonzero;fill:rgb(0%,35.299683%,66.299438%);fill-opacity:1;" d="M 188.445313 201.027344 L 188.445313 200.019531 C 189.320313 199.976563 189.828125 199.925781 190.019531 199.925781 C 190.171875 199.925781 190.300781 199.898438 190.390625 199.871094 C 190.640625 199.8125 190.859375 199.695313 190.914063 199.542969 C 191.007813 199.339844 191.066406 199.089844 191.066406 198.75 L 191.066406 186.109375 C 191.066406 185.5 190.894531 185.140625 190.640625 185.042969 C 190.390625 184.976563 189.664063 184.890625 188.445313 184.859375 L 188.445313 183.847656 L 196.414063 183.847656 L 196.414063 184.859375 C 195.140625 184.890625 194.386719 184.949219 194.101563 185.042969 C 193.855469 185.140625 193.71875 185.5 193.71875 186.109375 L 193.71875 198.496094 C 193.71875 199.175781 193.855469 199.582031 194.132813 199.742188 C 194.417969 199.925781 195.085938 200.019531 196.171875 200.019531 C 197.75 200.019531 198.925781 199.757813 199.714844 199.328125 C 201.074219 198.496094 201.886719 196.898438 202.214844 194.488281 L 203.210938 194.539063 L 202.726563 201.027344 "/>
<path style=" stroke:none;fill-rule:nonzero;fill:rgb(0%,35.299683%,66.299438%);fill-opacity:1;" d="M 204.109375 189.984375 L 204.363281 189.957031 C 205.523438 189.882813 206.355469 189.171875 206.863281 187.839844 C 207.175781 187.058594 207.332031 186.160156 207.367188 185.140625 L 208.378906 185.140625 L 208.378906 189.984375 L 211.960938 189.984375 L 211.960938 190.953125 L 208.378906 190.953125 L 208.378906 197.945313 C 208.378906 198.390625 208.421875 198.78125 208.550781 199.097656 C 208.777344 199.648438 209.226563 199.925781 209.832031 199.925781 C 210.617188 199.925781 211.140625 199.5 211.453125 198.65625 C 211.617188 198.21875 211.738281 197.554688 211.796875 196.703125 L 212.742188 196.703125 C 212.707031 197.882813 212.546875 198.78125 212.226563 199.484375 C 211.652344 200.726563 210.617188 201.324219 209.035156 201.324219 C 207.820313 201.324219 206.980469 200.925781 206.515625 200.027344 C 206.28125 199.582031 206.15625 198.9375 206.15625 198.15625 L 206.15625 191.03125 L 204.109375 191.03125 "/>
<path style=" stroke:none;fill-rule:evenodd;fill:rgb(0%,35.299683%,66.299438%);fill-opacity:1;" d="M 215.472656 191.492188 C 216.351563 190.300781 217.535156 189.746094 219.003906 189.746094 C 219.714844 189.746094 220.363281 189.910156 220.886719 190.195313 C 221.464844 190.53125 221.90625 190.980469 222.261719 191.5625 L 222.261719 185.734375 C 222.261719 185.214844 222.054688 184.859375 221.628906 184.761719 C 221.371094 184.726563 220.773438 184.699219 219.828125 184.703125 L 219.828125 183.710938 L 224.421875 183.492188 L 224.421875 199.097656 C 224.421875 199.328125 224.492188 199.539063 224.589844 199.742188 C 224.714844 199.941406 224.96875 200.042969 225.390625 200.042969 L 226.355469 200.066406 L 226.355469 201.027344 L 222.324219 201.253906 L 222.324219 199.175781 C 222.054688 199.742188 221.71875 200.210938 221.3125 200.527344 C 220.601563 201.09375 219.765625 201.359375 218.796875 201.359375 C 217.554688 201.359375 216.429688 200.925781 215.527344 199.925781 C 214.621094 198.980469 214.136719 197.476563 214.136719 195.453125 C 214.136719 193.957031 214.59375 192.648438 215.472656 191.492188 M 217.285156 198.886719 C 217.742188 199.695313 218.429688 200.101563 219.371094 200.101563 C 220.601563 200.101563 221.464844 199.429688 221.933594 198.089844 C 222.152344 197.355469 222.28125 196.515625 222.28125 195.480469 C 222.28125 194.386719 222.125 193.472656 221.8125 192.726563 C 221.335938 191.570313 220.515625 191.015625 219.425781 191.015625 C 218.324219 191.015625 217.570313 191.609375 217.113281 192.808594 C 216.761719 193.578125 216.640625 194.539063 216.640625 195.652344 C 216.640625 197 216.839844 198.089844 217.285156 198.886719 "/>
<path style=" stroke:none;fill-rule:nonzero;fill:rgb(0%,35.299683%,66.299438%);fill-opacity:1;" d="M 231.316406 198.828125 C 231.59375 199.109375 231.761719 199.460938 231.761719 199.863281 C 231.761719 200.269531 231.59375 200.609375 231.316406 200.933594 C 231.011719 201.199219 230.675781 201.324219 230.273438 201.324219 C 229.855469 201.324219 229.507813 201.199219 229.199219 200.933594 C 228.890625 200.625 228.730469 200.269531 228.730469 199.863281 C 228.730469 199.460938 228.890625 199.109375 229.179688 198.828125 C 229.464844 198.496094 229.828125 198.382813 230.253906 198.382813 C 230.675781 198.382813 231.011719 198.496094 231.316406 198.828125 "/>
<path style=" stroke:none;fill-rule:nonzero;fill:rgb(0%,35.299683%,66.299438%);fill-opacity:1;" d="M 95.40625 117.617188 C 95.40625 117.617188 35.34375 153.40625 27.222656 131.226563 C 27.222656 131.226563 16.925781 106.160156 62.945313 75.1875 C 62.945313 75.1875 39.402344 76.257813 50.472656 63.199219 C 50.472656 63.199219 65.921875 46.082031 93.507813 36.226563 L 90.273438 40.207031 C 90.273438 40.207031 65.84375 50.558594 70.539063 62.113281 C 73.238281 68.773438 84.613281 60.796875 84.613281 60.796875 L 89.199219 62.378906 C 89.199219 62.378906 38.589844 94.394531 51.03125 118.6875 C 51.03125 118.6875 64.539063 135.246094 91.914063 115.773438 "/>
<path style=" stroke:none;fill-rule:nonzero;fill:rgb(100%,75.698853%,5.499268%);fill-opacity:1;" d="M 98.917969 38.097656 C 98.484375 38.460938 98.917969 41.308594 98.917969 41.308594 C 98.917969 41.308594 117.050781 32.46875 122.472656 37.265625 C 122.472656 37.265625 127.617188 44.222656 98.660156 60.253906 L 98.660156 66.65625 C 98.660156 66.65625 143.351563 40.207031 146.570313 69.074219 C 146.570313 69.074219 149.84375 94.394531 117.355469 132.847656 C 117.355469 132.847656 174.480469 92.265625 173.085938 59.445313 C 173.085938 59.445313 170.378906 34.632813 128.179688 48.480469 C 128.179688 48.480469 144.148438 35.707031 131.671875 28.238281 C 131.671875 28.238281 118.4375 20.980469 98.917969 38.097656 "/>
<path style=" stroke:none;fill-rule:nonzero;fill:rgb(0%,64.299011%,31.799316%);fill-opacity:1;" d="M 102.199219 17.015625 L 98.660156 136.664063 C 149.492188 125.738281 214.566406 112.816406 230.464844 114.703125 C 230.464844 114.703125 235.363281 117.617188 226.160156 119.5 C 226.160156 119.5 92.707031 151.789063 41.546875 175.28125 L 34.503906 151 C 34.503906 151 61.410156 144.695313 95.449219 137.339844 C 95.671875 126.085938 97.265625 38.628906 92.4375 30.890625 "/>
<path style=" stroke:none;fill-rule:nonzero;fill:rgb(13.299561%,12.199402%,12.199402%);fill-opacity:1;" d="M 225.769531 132.535156 C 225.441406 132.257813 224.957031 132.105469 224.328125 132.105469 L 222.996094 132.105469 L 222.996094 135.390625 L 224.167969 135.390625 C 224.816406 135.390625 225.328125 135.261719 225.703125 134.984375 C 226.085938 134.699219 226.273438 134.273438 226.273438 133.734375 C 226.273438 133.21875 226.09375 132.816406 225.769531 132.535156 M 227.832031 139.808594 L 226.9375 140.003906 L 224.136719 136.128906 L 222.996094 136.128906 L 222.996094 139.90625 L 222.125 139.90625 L 222.125 131.359375 L 224.347656 131.359375 C 225.207031 131.359375 225.886719 131.554688 226.410156 131.960938 C 226.886719 132.34375 227.140625 132.941406 227.140625 133.679688 C 227.140625 134.015625 227.085938 134.320313 226.972656 134.578125 C 226.871094 134.824219 226.726563 135.046875 226.554688 135.246094 C 226.378906 135.449219 226.152344 135.613281 225.910156 135.75 C 225.664063 135.863281 225.367188 135.964844 225.078125 136.019531 "/>
<path style=" stroke:none;fill-rule:nonzero;fill:rgb(13.299561%,12.199402%,12.199402%);fill-opacity:1;" d="M 224.421875 129.355469 C 220.808594 129.355469 217.859375 132.25 217.859375 135.816406 C 217.859375 139.378906 220.808594 142.28125 224.421875 142.28125 C 228.039063 142.28125 230.972656 139.378906 230.972656 135.816406 C 230.972656 132.25 228.039063 129.355469 224.421875 129.355469 M 224.421875 143.046875 C 220.378906 143.046875 217.078125 139.808594 217.078125 135.816406 C 217.078125 131.820313 220.378906 128.566406 224.421875 128.566406 C 228.476563 128.566406 231.761719 131.820313 231.761719 135.816406 C 231.761719 139.808594 228.476563 143.046875 224.421875 143.046875 "/>
</g>
</svg>
