<?xml version="1.0" encoding="UTF-8"?>
<svg xmlns="http://www.w3.org/2000/svg" xmlns:xlink="http://www.w3.org/1999/xlink" width="3246.09pt" height="439.6pt" viewBox="0 0 3246.09 439.6" version="1.1">
<defs>
<clipPath id="clip1">
  <path d="M 2 0 L 670 0 L 670 439.601563 L 2 439.601563 Z M 2 0 "/>
</clipPath>
<clipPath id="clip2">
  <path d="M 762 416 L 3246.089844 416 L 3246.089844 439.601563 L 762 439.601563 Z M 762 416 "/>
</clipPath>
<clipPath id="clip3">
  <path d="M 762 392 L 3246.089844 392 L 3246.089844 406 L 762 406 Z M 762 392 "/>
</clipPath>
</defs>
<g id="surface1">
<g clip-path="url(#clip1)" clip-rule="nonzero">
<path style=" stroke:none;fill-rule:evenodd;fill:rgb(0%,56.498718%,29.798889%);fill-opacity:1;" d="M 250.90625 0.828125 C 257.710938 0.828125 264.511719 0.828125 271.3125 0.828125 C 307.480469 0.828125 343.644531 0.773438 379.8125 0.933594 C 382.59375 0.941406 385.800781 1.8125 388.089844 3.355469 C 475.355469 62.179688 562.355469 121.414063 649.878906 179.859375 C 670.882813 193.886719 677.066406 225.203125 658.472656 245.515625 C 654.023438 250.375 648.855469 254.789063 643.386719 258.46875 C 561.605469 313.511719 479.71875 368.398438 397.863281 423.328125 C 391.226563 427.78125 384.757813 432.503906 377.953125 436.6875 C 375.4375 438.234375 372.195313 439.367188 369.28125 439.378906 C 331.949219 439.5625 294.613281 439.449219 257.28125 439.601563 C 253.039063 439.617188 249.679688 438.425781 246.242188 436.078125 C 170.328125 384.238281 94.359375 332.480469 18.398438 280.710938 C 13.074219 277.085938 7.734375 273.480469 2.636719 268.878906 C 4.039063 268.878906 5.4375 268.878906 6.839844 268.882813 C 45.671875 268.980469 84.5 269.042969 123.328125 269.269531 C 125.65625 269.28125 128.324219 270.058594 130.25 271.351563 C 181.003906 305.390625 231.675781 339.550781 282.371094 373.675781 C 290.109375 378.882813 297.980469 383.898438 305.597656 389.273438 C 308.339844 391.210938 310.234375 391.222656 313.070313 389.347656 C 348.359375 366.03125 383.742188 342.855469 419.109375 319.652344 C 462.6875 291.066406 506.28125 262.511719 549.816406 233.867188 C 552.847656 231.875 555.84375 229.578125 558.191406 226.855469 C 564.539063 219.492188 564.007813 211.851563 556.171875 206.09375 C 542.089844 195.75 527.789063 185.683594 513.261719 175.976563 C 473.660156 149.527344 433.902344 123.320313 394.199219 97.027344 C 348.65625 66.871094 303.105469 36.730469 257.558594 6.570313 C 255.214844 5.019531 252.914063 3.390625 250.59375 1.800781 C 250.699219 1.476563 250.804688 1.152344 250.90625 0.828125 "/>
</g>
<path style=" stroke:none;fill-rule:evenodd;fill:rgb(0%,56.498718%,29.798889%);fill-opacity:1;" d="M 1.863281 165.421875 C 8.230469 161.078125 13.652344 157.34375 19.105469 153.660156 C 89.167969 106.359375 159.261719 59.101563 229.238281 11.671875 C 233.464844 8.804688 236.238281 8.597656 240.484375 11.757813 C 258.105469 24.867188 276.050781 37.539063 293.867188 50.382813 C 294.648438 50.945313 295.378906 51.585938 296.589844 52.558594 C 289.566406 57.296875 282.847656 61.839844 276.117188 66.359375 C 227.902344 98.734375 179.707031 131.128906 131.421875 163.390625 C 129.089844 164.949219 125.949219 166.089844 123.183594 166.089844 C 83.890625 166.097656 44.59375 165.871094 5.296875 165.695313 C 4.542969 165.691406 3.792969 165.578125 1.863281 165.421875 "/>
<path style=" stroke:none;fill-rule:nonzero;fill:rgb(78.799438%,19.599915%,18.399048%);fill-opacity:1;" d="M 40.75 253.199219 L 0 253.199219 L 0 181.199219 L 40.75 181.199219 L 40.75 253.199219 "/>
<path style=" stroke:none;fill-rule:nonzero;fill:rgb(78.799438%,19.599915%,18.399048%);fill-opacity:1;" d="M 218 253.199219 L 178.75 253.199219 L 178.75 181.199219 L 218 181.199219 L 218 253.199219 "/>
<path style=" stroke:none;fill-rule:nonzero;fill:rgb(78.799438%,19.599915%,18.399048%);fill-opacity:1;" d="M 105.25 197.699219 L 105.25 181.199219 L 65.75 181.199219 L 65.75 253.199219 L 107.25 253.199219 L 107.25 232.199219 L 153.5 232.199219 L 153.5 215.699219 L 107.25 215.699219 L 107.25 197.699219 L 105.25 197.699219 "/>
<path style=" stroke:none;fill-rule:nonzero;fill:rgb(78.799438%,19.599915%,18.399048%);fill-opacity:1;" d="M 107.25 197.699219 L 153.5 197.699219 L 153.5 181.199219 L 105.25 181.199219 L 105.25 197.699219 L 107.25 197.699219 "/>
<path style=" stroke:none;fill-rule:nonzero;fill:rgb(78.799438%,19.599915%,18.399048%);fill-opacity:1;" d="M 312.75 210.699219 L 341.417969 210.699219 L 341.417969 192.824219 C 341.417969 192.824219 342.375 181.511719 328.9375 181.511719 C 315.5 181.511719 256.582031 181.511719 256.582031 181.511719 C 256.582031 181.511719 244.417969 182.53125 244.417969 193.03125 C 244.417969 203.53125 244.417969 241.863281 244.417969 241.863281 C 244.417969 241.863281 244.25 253.199219 256.082031 253.199219 C 267.917969 253.199219 329.25 253.199219 329.25 253.199219 C 329.25 253.199219 341.433594 251.699219 341.433594 241.53125 C 341.433594 231.363281 341.433594 225.53125 341.433594 225.53125 L 312.917969 225.53125 L 312.917969 233.511719 C 312.917969 233.511719 313.4375 237.574219 309.3125 237.574219 C 305.1875 237.574219 288.25 237.574219 288.25 237.574219 C 288.25 237.574219 284.28125 237.886719 284.28125 233.605469 C 284.28125 229.324219 284.28125 201.824219 284.28125 201.824219 C 284.28125 201.824219 283.9375 197.886719 288.125 197.886719 C 292.3125 197.886719 309.4375 197.886719 309.4375 197.886719 C 309.4375 197.886719 312.75 197.824219 312.75 201.605469 C 312.75 205.386719 312.75 210.699219 312.75 210.699219 "/>
<path style=" stroke:none;fill-rule:evenodd;fill:rgb(0%,56.498718%,29.798889%);fill-opacity:1;" d="M 2612.398438 156.953125 C 2612.398438 219.164063 2612.398438 281.371094 2612.398438 343.851563 C 2578.941406 343.851563 2546.039063 343.851563 2512.890625 343.851563 C 2512.890625 229.53125 2512.890625 115.585938 2512.890625 1.050781 C 2514.5 0.972656 2516.101563 0.828125 2517.691406 0.828125 C 2547.691406 0.816406 2577.691406 0.890625 2607.691406 0.738281 C 2611.300781 0.71875 2613.398438 1.921875 2615.371094 4.835938 C 2641.03125 42.769531 2666.800781 80.628906 2692.53125 118.507813 C 2707.410156 140.410156 2722.28125 162.316406 2737.171875 184.21875 C 2738.371094 185.988281 2739.628906 187.726563 2741.859375 189.320313 C 2741.859375 126.65625 2741.859375 63.992188 2741.859375 1.101563 C 2775.699219 1.101563 2808.78125 1.101563 2842.21875 1.101563 C 2842.320313 2.96875 2842.488281 4.585938 2842.488281 6.203125 C 2842.5 116.867188 2842.46875 227.535156 2842.589844 338.199219 C 2842.601563 342.980469 2841.351563 344.367188 2836.5 344.335938 C 2806.828125 344.121094 2777.171875 344.167969 2747.5 344.335938 C 2743.5 344.359375 2741.171875 342.945313 2738.960938 339.714844 C 2698.308594 280.164063 2657.539063 220.679688 2616.789063 161.191406 C 2615.710938 159.621094 2614.53125 158.121094 2613.398438 156.589844 C 2613.070313 156.710938 2612.730469 156.835938 2612.398438 156.953125 "/>
<path style=" stroke:none;fill-rule:evenodd;fill:rgb(0%,56.498718%,29.798889%);fill-opacity:1;" d="M 1898.308594 135.234375 C 1917.488281 135.234375 1936.300781 135.832031 1955.03125 134.9375 C 1962.539063 134.578125 1970.839844 132.433594 1977.109375 128.464844 C 1989.699219 120.496094 1991.078125 107.253906 1988.46875 93.820313 C 1985.949219 80.882813 1976.949219 74.019531 1964.371094 71.726563 C 1958.820313 70.71875 1953.148438 69.898438 1947.53125 69.8125 C 1931.238281 69.5625 1914.941406 69.722656 1898.308594 69.722656 C 1898.308594 91.730469 1898.308594 113.4375 1898.308594 135.234375 Z M 1898.320313 199.675781 C 1898.320313 223.707031 1898.320313 246.574219 1898.320313 269.617188 C 1899.660156 269.730469 1900.628906 269.882813 1901.609375 269.882813 C 1921.421875 269.878906 1941.238281 270.152344 1961.039063 269.671875 C 1967.570313 269.515625 1974.230469 267.984375 1980.519531 266.085938 C 1997.5 260.964844 2005.890625 244.523438 2001.898438 226.371094 C 1998.769531 212.132813 1987.339844 202.710938 1970.519531 201.75 C 1946.628906 200.382813 1922.679688 200.308594 1898.320313 199.675781 Z M 1790.890625 343.96875 C 1790.890625 229.53125 1790.890625 115.492188 1790.890625 1.105469 C 1792.730469 1 1794.339844 0.832031 1795.960938 0.832031 C 1863.101563 0.820313 1930.25 0.503906 1997.390625 0.984375 C 2023.25 1.167969 2047.269531 7.9375 2067.269531 25.800781 C 2096.238281 51.660156 2099.929688 93.472656 2085.570313 122.257813 C 2076.921875 139.59375 2063.101563 151.269531 2045.261719 158.410156 C 2043.261719 159.210938 2041.28125 160.070313 2039.300781 160.917969 C 2039.171875 160.972656 2039.109375 161.160156 2038.851563 161.507813 C 2045.761719 163.96875 2052.78125 165.992188 2059.398438 168.910156 C 2093.710938 184 2109.761719 210.109375 2109.589844 247.496094 C 2109.378906 292.101563 2078.550781 329.664063 2032.46875 338.648438 C 2012.78125 342.488281 1992.921875 344.082031 1972.96875 344.167969 C 1914.160156 344.417969 1855.351563 344.25 1796.53125 344.234375 C 1794.738281 344.230469 1792.949219 344.070313 1790.890625 343.96875 "/>
<path style=" stroke:none;fill-rule:evenodd;fill:rgb(0%,56.498718%,29.798889%);fill-opacity:1;" d="M 2987.5 343.863281 C 2952.019531 343.863281 2917.109375 343.863281 2881.851563 343.863281 C 2881.851563 229.527344 2881.851563 115.492188 2881.851563 1.136719 C 2916.960938 1.136719 2951.871094 1.136719 2987.28125 1.136719 C 2987.28125 44.003906 2987.28125 86.742188 2987.28125 130.835938 C 2989.308594 129.285156 2990.480469 128.597656 2991.398438 127.652344 C 3015.539063 102.824219 3039.648438 77.964844 3063.78125 53.125 C 3080.03125 36.402344 3096.28125 19.6875 3112.621094 3.0625 C 3113.75 1.910156 3115.691406 0.925781 3117.25 0.921875 C 3159.410156 0.8125 3201.570313 0.839844 3243.730469 0.859375 C 3244.011719 0.859375 3244.289063 1.089844 3245.089844 1.4375 C 3243.789063 2.847656 3242.660156 4.164063 3241.441406 5.386719 C 3200.761719 45.992188 3160.109375 86.625 3119.308594 127.101563 C 3116.121094 130.265625 3116.269531 132.394531 3118.460938 135.957031 C 3160.078125 203.585938 3201.570313 271.292969 3243.078125 338.988281 C 3243.921875 340.371094 3244.691406 341.800781 3245.910156 343.921875 C 3243.46875 344.039063 3241.710938 344.199219 3239.960938 344.203125 C 3200.46875 344.214844 3160.96875 344.144531 3121.480469 344.308594 C 3117.371094 344.328125 3115.289063 342.855469 3113.320313 339.40625 C 3089.300781 297.34375 3065.128906 255.367188 3040.988281 213.378906 C 3040.269531 212.117188 3039.390625 210.941406 3039.550781 211.140625 C 3031.558594 218.359375 3023.328125 225.339844 3015.628906 232.855469 C 3007.058594 241.230469 2998.828125 249.964844 2990.769531 258.835938 C 2988.988281 260.800781 2987.679688 263.992188 2987.648438 266.632813 C 2987.410156 290.292969 2987.5 313.957031 2987.5 337.621094 C 2987.5 339.582031 2987.5 341.542969 2987.5 343.863281 "/>
<path style=" stroke:none;fill-rule:evenodd;fill:rgb(0%,56.498718%,29.798889%);fill-opacity:1;" d="M 2294.878906 90.253906 C 2294.480469 90.273438 2294.089844 90.296875 2293.691406 90.316406 C 2281.199219 130.914063 2268.699219 171.515625 2256.089844 212.480469 C 2281.648438 212.480469 2306.351563 212.480469 2331.710938 212.480469 C 2319.328125 171.398438 2307.101563 130.824219 2294.878906 90.253906 Z M 2482.480469 344.210938 C 2478.648438 344.210938 2475.671875 344.210938 2472.691406 344.210938 C 2440.859375 344.214844 2409.039063 344.132813 2377.210938 344.316406 C 2372.839844 344.34375 2370.769531 343.179688 2369.539063 338.796875 C 2365.109375 322.972656 2360.171875 307.289063 2355.601563 291.503906 C 2354.679688 288.335938 2353.410156 287.117188 2349.828125 287.117188 C 2312.679688 287.109375 2275.539063 286.949219 2238.390625 286.566406 C 2234.160156 286.519531 2232.671875 288.050781 2231.570313 291.765625 C 2226.78125 308.015625 2221.660156 324.167969 2216.851563 340.414063 C 2216.050781 343.09375 2214.941406 344.246094 2212.101563 344.238281 C 2177.949219 344.160156 2143.789063 344.167969 2109.628906 344.136719 C 2109.140625 344.136719 2108.660156 343.9375 2107.449219 343.675781 C 2108.238281 341.179688 2108.878906 338.714844 2109.78125 336.347656 C 2141.398438 253.066406 2173.039063 169.789063 2204.679688 86.519531 C 2214.960938 59.484375 2225.320313 32.484375 2235.460938 5.40625 C 2236.769531 1.921875 2238.449219 0.703125 2242.238281 0.71875 C 2277.890625 0.878906 2313.550781 0.878906 2349.210938 0.726563 C 2353 0.710938 2354.730469 1.894531 2356.039063 5.410156 C 2388.46875 92.4375 2421.011719 179.425781 2453.539063 266.417969 C 2462.671875 290.851563 2471.828125 315.28125 2480.96875 339.714844 C 2481.421875 340.921875 2481.789063 342.15625 2482.480469 344.210938 "/>
<path style=" stroke:none;fill-rule:evenodd;fill:rgb(85.499573%,12.89978%,15.699768%);fill-opacity:1;" d="M 1624.621094 203.238281 C 1655.039063 212.117188 1685.621094 221.042969 1716.988281 230.199219 C 1715.71875 234.738281 1714.691406 239.023438 1713.328125 243.203125 C 1700.449219 282.941406 1676.96875 313.664063 1638.019531 330.988281 C 1618.730469 339.566406 1598.21875 342.738281 1577.289063 343.65625 C 1550.421875 344.832031 1523.78125 343.449219 1497.351563 337.78125 C 1458.648438 329.476563 1429.96875 307.390625 1408.421875 274.925781 C 1392.539063 251.003906 1385.039063 224.394531 1382.511719 196.117188 C 1380.070313 168.71875 1381 141.46875 1387.890625 114.769531 C 1402.558594 57.855469 1438.769531 21.773438 1495.660156 7.722656 C 1540.441406 -3.339844 1585.460938 -2.917969 1629.640625 11.613281 C 1660.351563 21.710938 1682.621094 42.421875 1698.488281 70.105469 C 1703.679688 79.160156 1707.519531 88.988281 1711.910156 98.5 C 1712.648438 100.089844 1713 101.859375 1713.660156 103.953125 C 1698.339844 107.230469 1683.578125 110.414063 1668.808594 113.535156 C 1654.011719 116.664063 1639.140625 119.53125 1624.398438 122.957031 C 1620.449219 123.875 1619.128906 122.757813 1617.96875 119.320313 C 1610.609375 97.542969 1595.769531 83.769531 1573.308594 78.589844 C 1537.101563 70.246094 1503.878906 89.0625 1494.109375 124.871094 C 1485.039063 158.117188 1485.660156 191.976563 1494.898438 225.082031 C 1502.28125 251.53125 1521.910156 265.667969 1549.351563 267.011719 C 1561.75 267.621094 1573.988281 266.769531 1585.578125 261.59375 C 1600.53125 254.910156 1609.289063 242.554688 1615.570313 228.222656 C 1619.019531 220.34375 1621.46875 212.027344 1624.621094 203.238281 "/>
<path style=" stroke:none;fill-rule:evenodd;fill:rgb(85.499573%,12.89978%,15.699768%);fill-opacity:1;" d="M 1163.808594 134.21875 C 1163.808594 158.035156 1163.808594 180.617188 1163.808594 203.800781 C 1161.539063 203.800781 1159.578125 203.800781 1157.628906 203.800781 C 1116.96875 203.742188 1076.308594 203.75 1035.660156 203.535156 C 1031.371094 203.515625 1029.980469 204.464844 1030 209.007813 C 1030.179688 252 1030.011719 294.992188 1030.210938 337.980469 C 1030.238281 343.066406 1028.859375 344.433594 1023.800781 344.394531 C 992.304688 344.167969 960.8125 344.183594 929.316406 344.390625 C 924.425781 344.421875 922.773438 343.328125 922.78125 338.09375 C 922.929688 227.449219 922.882813 116.804688 922.894531 6.160156 C 922.894531 4.535156 923.113281 2.90625 923.246094 1.039063 C 1011.328125 1.039063 1099.050781 1.039063 1187.101563 1.039063 C 1187.101563 25.550781 1187.101563 49.765625 1187.101563 74.421875 C 1134.820313 74.421875 1082.898438 74.421875 1030.53125 74.421875 C 1030.53125 94.371094 1030.53125 113.882813 1030.53125 134.21875 C 1074.941406 134.21875 1119.179688 134.21875 1163.808594 134.21875 "/>
<path style=" stroke:none;fill-rule:evenodd;fill:rgb(85.499573%,12.89978%,15.699768%);fill-opacity:1;" d="M 1233.851563 0.992188 C 1269.589844 0.992188 1304.679688 0.992188 1340.058594 0.992188 C 1340.058594 115.289063 1340.058594 229.328125 1340.058594 343.824219 C 1304.761719 343.824219 1269.441406 343.824219 1233.851563 343.824219 C 1233.851563 229.480469 1233.851563 115.464844 1233.851563 0.992188 "/>
<path style=" stroke:none;fill-rule:evenodd;fill:rgb(85.499573%,12.89978%,15.699768%);fill-opacity:1;" d="M 869.074219 1.175781 C 869.074219 115.40625 869.074219 229.445313 869.074219 343.933594 C 867.148438 344.058594 865.367188 344.277344 863.582031 344.277344 C 831.761719 344.292969 799.941406 344.1875 768.121094 344.390625 C 763.394531 344.421875 762.292969 342.902344 762.296875 338.429688 C 762.402344 227.8125 762.382813 117.191406 762.382813 6.574219 C 762.382813 4.921875 762.382813 3.269531 762.382813 1.175781 C 798.105469 1.175781 833.449219 1.175781 869.074219 1.175781 "/>
<g clip-path="url(#clip2)" clip-rule="nonzero">
<path style=" stroke:none;fill-rule:evenodd;fill:rgb(0%,56.498718%,29.798889%);fill-opacity:1;" d="M 3246.089844 439.601563 L 762.296875 439.601563 L 762.296875 416.222656 L 3246.089844 416.222656 L 3246.089844 439.601563 "/>
</g>
<g clip-path="url(#clip3)" clip-rule="nonzero">
<path style=" stroke:none;fill-rule:evenodd;fill:rgb(85.499573%,12.89978%,15.699768%);fill-opacity:1;" d="M 3246.089844 405.742188 L 762.296875 405.742188 L 762.296875 392.089844 L 3246.089844 392.089844 L 3246.089844 405.742188 "/>
</g>
</g>
</svg>
